<svg xmlns="http://www.w3.org/2000/svg" xmlns:xlink="http://www.w3.org/1999/xlink" width="537" height="406.675" viewBox="0 0 537 406.675">
  <defs>
    <filter id="Path_806" x="87.932" y="47.885" width="393.955" height="300.332" filterUnits="userSpaceOnUse">
      <feOffset dy="3" input="SourceAlpha"/>
      <feGaussianBlur stdDeviation="3" result="blur"/>
      <feFlood flood-opacity="0.161"/>
      <feComposite operator="in" in2="blur"/>
      <feComposite in="SourceGraphic"/>
    </filter>
    <linearGradient id="linear-gradient" x1="0.5" y1="1" x2="0.5" gradientUnits="objectBoundingBox">
      <stop offset="0" stop-color="gray" stop-opacity="0.251"/>
      <stop offset="0.54" stop-color="gray" stop-opacity="0.122"/>
      <stop offset="1" stop-color="gray" stop-opacity="0.102"/>
    </linearGradient>
    <linearGradient id="linear-gradient-2" x1="-4.28" y1="0.935" x2="-4.28" y2="-0.076" xlink:href="#linear-gradient"/>
    <linearGradient id="linear-gradient-3" x1="0.5" y1="1" x2="0.5" y2="0" xlink:href="#linear-gradient"/>
  </defs>
  <g id="vector5" transform="translate(-415 -6571.206)">
    <rect id="Rectangle_152" data-name="Rectangle 152" width="49.956" height="406.274" rx="24.978" transform="matrix(0.926, -0.379, 0.379, 0.926, 495.154, 6601.841)" fill="#2481c5" opacity="0.369"/>
    <rect id="Rectangle_153" data-name="Rectangle 153" width="49.956" height="389.091" rx="24.978" transform="matrix(0.926, -0.379, 0.379, 0.926, 415, 6612.138)" fill="#3397e1" opacity="0.369"/>
    <rect id="Rectangle_154" data-name="Rectangle 154" width="49.956" height="406.274" rx="24.978" transform="matrix(0.926, -0.379, 0.379, 0.926, 584.871, 6590.117)" fill="#1fbc99" opacity="0.369"/>
    <ellipse id="Ellipse_115" data-name="Ellipse 115" cx="18.5" cy="2" rx="18.5" ry="2" transform="translate(483 6920)" opacity="0.171"/>
    <ellipse id="Ellipse_116" data-name="Ellipse 116" cx="39.5" cy="4" rx="39.5" ry="4" transform="translate(590 6914)" opacity="0.085"/>
    <ellipse id="Ellipse_117" data-name="Ellipse 117" cx="39.5" cy="4" rx="39.5" ry="4" transform="translate(805 6914)" opacity="0.085"/>
    <g id="Group_36" data-name="Group 36" transform="translate(415.02 6625.59)">
      <path id="Path_770" data-name="Path 770" d="M953.018,681.865s-5.986-3.95-11.918-1.145c0,0,1.827,3.521,9.337,3.185Z" transform="translate(-500.563 -413.528)" fill="#6c63ff"/>
      <path id="Path_771" data-name="Path 771" d="M962.9,684.56s1.822,6.936-2.742,11.655c0,0-2.747-2.859-.024-9.863Z" transform="translate(-509.708 -416.014)" fill="#6c63ff"/>
      <path id="Path_772" data-name="Path 772" d="M967.914,666.318s-.443-5.9-13.764-3.945c0,0-.058,3.809,4.617,5.611S965.581,668.266,967.914,666.318Z" transform="translate(-507.257 -404.43)" fill="#6c63ff"/>
      <path id="Path_773" data-name="Path 773" d="M979.977,670.81s5.63,1.807.609,14.3c0,0-3.711-.828-4.384-5.8S977.536,672.617,979.977,670.81Z" transform="translate(-518.501 -408.961)" fill="#6c63ff"/>
      <path id="Path_774" data-name="Path 774" d="M986.017,644.373s.765-9.707-12.849-8.709c0,0-.974,8.767,10.448,11.047Z" transform="translate(-517.002 -390.896)" fill="#6c63ff"/>
      <path id="Path_775" data-name="Path 775" d="M1001.709,622.352s-1.865-11-15.469-7.725c0,0-.053,9.512,13.248,10.345Z" transform="translate(-523.717 -379.83)" fill="#3397e1"/>
      <path id="Path_776" data-name="Path 776" d="M1014.049,599.331s-3.127-10.715-16.609-7.51c0,0,3.21,9.639,15.713,9.488Z" transform="translate(-529.462 -368.137)" fill="#3397e1"/>
      <path id="Path_777" data-name="Path 777" d="M1027.433,576.289s-3.054-11.12-16.073-7.793c0,0,4.344,10.564,15.211,9.678Z" transform="translate(-536.602 -356.161)" fill="#3397e1"/>
      <path id="Path_778" data-name="Path 778" d="M1037.375,551.961s-2.348-13.6-14.485-10.589c0,0,3.521,12.371,13.589,12.566Z" transform="translate(-542.516 -342.344)" fill="#3397e1"/>
      <path id="Path_779" data-name="Path 779" d="M1044.469,526.482s-2.815-13.711-15.1-9.741c0,0,4.817,12.956,14.232,11.616Z" transform="translate(-545.84 -329.563)" fill="#3397e1"/>
      <path id="Path_780" data-name="Path 780" d="M1050.459,499.178s-4.476-13.706-13.969-13.336c0,0,4.578,14.48,13.151,16.073Z" transform="translate(-549.492 -314.08)" fill="#2481c5"/>
      <path id="Path_781" data-name="Path 781" d="M1054.95,473.447s-4.87-16.5-12.6-15.23c0,0,3.375,12.615,12.323,17.8Z" transform="translate(-552.498 -299.878)" fill="#2481c5"/>
      <path id="Path_782" data-name="Path 782" d="M1057.177,446.22s-4.564-13.75-12.177-14.3c0,0,3.1,13.531,12.021,17.87Z" transform="translate(-553.857 -286.425)" fill="#3397e1"/>
      <path id="Path_783" data-name="Path 783" d="M1060.555,420.176s-5.694-13.764-10.715-14.076c0,0,2.474,13.555,10.228,16.336Z" transform="translate(-556.34 -273.181)" fill="#2481c5"/>
      <path id="Path_784" data-name="Path 784" d="M1064.153,393.38s-3.5-14.953-8.533-16.19c0,0,.687,12.23,8.027,17.31Z" transform="translate(-559.305 -258.352)" fill="#2481c5"/>
      <path id="Path_785" data-name="Path 785" d="M1068.829,363.88s-3.682-11.914-7.759-13.73c0,0,.808,14.047,6.819,16.648Z" transform="translate(-562.1 -244.482)" fill="#3397e1"/>
      <path id="Path_786" data-name="Path 786" d="M1077.039,335.142l.745-21.012s-7.608,15.859-1.305,24.718Z" transform="translate(-568.722 -226.006)" fill="#3397e1"/>
      <path id="Path_787" data-name="Path 787" d="M1089.227,297.34s5.484-15.342,6.819-16.2c0,0-10.764,9.956-9.712,22.76Z" transform="translate(-575.022 -209.084)" fill="#2481c5"/>
      <path id="Path_788" data-name="Path 788" d="M998.016,653.447s9.654-1.266,9.361,12.381c0,0-8.723,1.417-11.568-9.863Z" transform="translate(-528.626 -400.039)" fill="#3397e1"/>
      <path id="Path_789" data-name="Path 789" d="M1016.656,630.37s11.159-.034,10.228,13.93c0,0-9.361,1.671-12.454-11.29Z" transform="translate(-538.177 -388.218)" fill="#3397e1"/>
      <path id="Path_790" data-name="Path 790" d="M1030.821,608.767s10.126-4.749,16.609,7.51c0,0-9.357,3.955-17.5-5.528Z" transform="translate(-546.128 -376.672)" fill="#3397e1"/>
      <path id="Path_791" data-name="Path 791" d="M1043.922,584.246s10.37-5.051,16.458,6.921c0,0-10.8,3.721-17.31-5.026Z" transform="translate(-552.868 -364.016)" fill="#3397e1"/>
      <path id="Path_792" data-name="Path 792" d="M1051.868,559.75s9.98-9.537,17.948.107c0,0-10.2,7.842-18.406,2.016Z" transform="translate(-557.145 -349.836)" fill="#3397e1"/>
      <path id="Path_793" data-name="Path 793" d="M1058.836,532.407s10.043-9.741,17.943.448c0,0-11.271,8-18.3,1.6Z" transform="translate(-560.772 -335.815)" fill="#2481c5"/>
      <path id="Path_794" data-name="Path 794" d="M1063.07,502.056s7.735-12.177,16.838-9.454c0,0-8.022,12.892-16.755,12.318Z" transform="translate(-563.126 -317.348)" fill="#3397e1"/>
      <path id="Path_795" data-name="Path 795" d="M1067.54,475.734s7.793-15.338,15.162-12.664c0,0-5.616,11.787-15.362,15.25Z" transform="translate(-565.317 -302.243)" fill="#2481c5"/>
      <path id="Path_796" data-name="Path 796" d="M1068.034,448.378s8.012-12.069,15.518-10.6c0,0-6.551,12.24-16.292,14.091Z" transform="translate(-565.275 -289.367)" fill="#2481c5"/>
      <path id="Path_797" data-name="Path 797" d="M1070.1,420.028s6.21-13.54,11.261-13.638c0,0-2.986,13.448-10.842,15.937Z" transform="translate(-566.732 -273.33)" fill="#3397e1"/>
      <path id="Path_798" data-name="Path 798" d="M1072.63,395.355s6.9-13.721,12.089-13.745c0,0-3.531,11.728-11.86,14.948Z" transform="translate(-568.03 -260.619)" fill="#2481c5"/>
      <path id="Path_799" data-name="Path 799" d="M1074.76,366.764s5.163-11.349,9.439-12.634c0,0-2.581,13.833-8.869,15.644Z" transform="translate(-569.123 -246.524)" fill="#2481c5"/>
      <path id="Path_800" data-name="Path 800" d="M1079.75,337.943l11.538-17.573s-2.956,17.339-13.219,20.944Z" transform="translate(-570.82 -229.207)" fill="#2481c5"/>
      <path id="Path_801" data-name="Path 801" d="M1091.9,305.974s13.414-9.254,13.9-10.754c0,0-6.819,12.966-19.482,15.255Z" transform="translate(-575.047 -216.306)" fill="#3397e1"/>
      <path id="Path_803" data-name="Path 803" d="M1075.07,344.407l.56.073c2.893-22.648,7.111-36.043,11.879-37.684l-.185-.536C1082.269,308.013,1078.031,321.2,1075.07,344.407Z" transform="translate(-569.282 -221.969)" fill="#1fbc99"/>
      <path id="Path_804" data-name="Path 804" d="M1066.34,436.957l.847.073c.175-2.114.312-4.281.4-6.434.809-18.742,2.06-35.955,3.711-48.857l-.487-.609c-1.651,12.927-3.258,30.661-4.067,49.432C1066.661,432.7,1066.515,434.858,1066.34,436.957Z" transform="translate(-564.804 -260.373)" fill="#1fbc99"/>
      <path id="Path_805" data-name="Path 805" d="M932.633,596.553c.151-.063,15.07-6.726,30.553-22.619a122.94,122.94,0,0,0,22.332-31.659c7.155-14.578,11.519-32.492,12.985-49.895l-.886.414c-3.283,39.062-21.07,65.753-35.21,80.292-15.333,15.747-30.081,22.341-30.227,22.4Z" transform="translate(-495.988 -317.437)" fill="#1fbc99"/>
      <g transform="matrix(1, 0, 0, 1, -0.02, -54.38)" filter="url(#Path_806)">
        <path id="Path_806-2" data-name="Path 806" d="M611.575,148.391v252.5c0,7.506-7.243,13.638-16.185,13.638H252.805c-8.942,0-16.185-6.108-16.185-13.638v-252.5c0-7.52,7.243-15.191,16.185-15.191l342.565.833C604.313,134.033,611.575,140.9,611.575,148.391Z" transform="translate(-139.19 -78.82)" fill="#fff" stroke="#2481c5" stroke-width="1"/>
      </g>
      <path id="Path_807" data-name="Path 807" d="M611.575,148.469v11.69H236.62v-11.69A15.269,15.269,0,0,1,251.9,133.2H596.31A15.269,15.269,0,0,1,611.575,148.469Z" transform="translate(-139.208 -133.2)" fill="none" stroke="#2481c5" stroke-width="1"/>
      <circle id="Ellipse_76" data-name="Ellipse 76" cx="5.397" cy="5.397" r="5.397" transform="translate(110.183 8.08)" fill="#fff" stroke="#1fbc99" stroke-width="1" opacity="0.8"/>
      <circle id="Ellipse_77" data-name="Ellipse 77" cx="5.397" cy="5.397" r="5.397" transform="translate(125.881 8.08)" fill="#fff" stroke="#1fbc99" stroke-width="1" opacity="0.8"/>
      <circle id="Ellipse_78" data-name="Ellipse 78" cx="5.397" cy="5.397" r="5.397" transform="translate(141.579 8.08)" fill="#fff" stroke="#1fbc99" stroke-width="1" opacity="0.8"/>
      <g id="Group_25" data-name="Group 25" transform="translate(239.468 90.803)" opacity="0.2">
        <path id="Path_808" data-name="Path 808" d="M607.048,321.271v27.275c0,.813-1.525,1.461-3.409,1.461H531.69c-1.88,0-3.409-.658-3.409-1.461V321.271c0-.813,1.52-1.641,3.409-1.641h71.949C605.528,319.625,607.048,320.453,607.048,321.271Z" transform="translate(-528.28 -319.63)" fill="#3397e1"/>
      </g>
      <rect id="Rectangle_92" data-name="Rectangle 92" width="37.484" height="1.325" transform="translate(274.045 100.539)" fill="#2481c5"/>
      <rect id="Rectangle_93" data-name="Rectangle 93" width="37.484" height="1.325" transform="translate(274.045 103.764)" fill="#2481c5" opacity="0.2"/>
      <rect id="Rectangle_94" data-name="Rectangle 94" width="37.484" height="1.325" transform="translate(274.045 106.988)" fill="#2481c5" opacity="0.2"/>
      <rect id="Rectangle_95" data-name="Rectangle 95" width="37.484" height="1.325" transform="translate(274.045 110.217)" fill="#2481c5" opacity="0.2"/>
      <g id="Group_26" data-name="Group 26" transform="translate(155.007 144.219)" opacity="0.2">
        <path id="Path_810" data-name="Path 810" d="M433.638,430.941v27.275c0,.809-1.52,1.461-3.409,1.461H358.279c-1.88,0-3.409-.662-3.409-1.461V430.941c0-.813,1.52-1.641,3.409-1.641h71.958C432.118,429.3,433.638,430.128,433.638,430.941Z" transform="translate(-354.87 -429.3)" fill="#2481c5"/>
      </g>
      <rect id="Rectangle_96" data-name="Rectangle 96" width="37.484" height="1.325" transform="translate(189.578 153.96)" fill="#2481c5"/>
      <rect id="Rectangle_97" data-name="Rectangle 97" width="37.484" height="1.325" transform="translate(189.578 157.184)" fill="#2481c5" opacity="0.2"/>
      <rect id="Rectangle_98" data-name="Rectangle 98" width="37.484" height="1.325" transform="translate(189.578 160.409)" fill="#2481c5" opacity="0.2"/>
      <rect id="Rectangle_99" data-name="Rectangle 99" width="37.484" height="1.325" transform="translate(189.578 163.633)" fill="#2481c5" opacity="0.2"/>
      <g id="Group_27" data-name="Group 27" transform="translate(135.588 57.722)" opacity="0.2">
        <path id="Path_812" data-name="Path 812" d="M393.758,253.351v27.275c0,.809-1.52,1.461-3.409,1.461H318.409c-1.875,0-3.409-.662-3.409-1.461V253.351c0-.813,1.525-1.641,3.409-1.641h71.949C392.238,251.71,393.758,252.538,393.758,253.351Z" transform="translate(-315 -251.71)" fill="#1fbc99"/>
      </g>
      <rect id="Rectangle_100" data-name="Rectangle 100" width="37.484" height="1.325" transform="translate(170.15 67.463)" fill="#1fbc99"/>
      <rect id="Rectangle_101" data-name="Rectangle 101" width="37.484" height="1.325" transform="translate(170.15 70.687)" fill="#1fbc99" opacity="0.2"/>
      <rect id="Rectangle_102" data-name="Rectangle 102" width="37.484" height="1.325" transform="translate(170.15 73.912)" fill="#1fbc99" opacity="0.2"/>
      <rect id="Rectangle_103" data-name="Rectangle 103" width="37.484" height="1.325" transform="translate(170.15 77.136)" fill="#1fbc99" opacity="0.2"/>
      <g id="Group_28" data-name="Group 28" transform="translate(259.126 186.758)" opacity="0.2">
        <path id="Path_814" data-name="Path 814" d="M647.413,518.276v27.275c0,.813-1.52,1.461-3.409,1.461H572.049c-1.88,0-3.409-.658-3.409-1.461V518.276c0-.813,1.52-1.637,3.409-1.637h71.963C645.893,516.615,647.413,517.438,647.413,518.276Z" transform="translate(-568.64 -516.639)" fill="#1fbc99"/>
      </g>
      <rect id="Rectangle_104" data-name="Rectangle 104" width="37.484" height="1.325" transform="translate(293.702 196.471)" fill="#1fbc99"/>
      <rect id="Rectangle_105" data-name="Rectangle 105" width="37.484" height="1.325" transform="translate(293.702 199.695)" fill="#1fbc99" opacity="0.2"/>
      <rect id="Rectangle_106" data-name="Rectangle 106" width="37.484" height="1.325" transform="translate(293.702 202.924)" fill="#1fbc99" opacity="0.2"/>
      <rect id="Rectangle_107" data-name="Rectangle 107" width="37.484" height="1.325" transform="translate(293.702 206.149)" fill="#1fbc99" opacity="0.2"/>
      <path id="Path_816" data-name="Path 816" d="M464.618,613.193,453.932,597.7s-.2-3.838-.9-4.734-.151-2.888-.151-2.888.75-1.1.1-1.2-.1-2.542-.1-2.542l-.049-3.9s.6-3.741.1-4.637a1.461,1.461,0,0,1,.049-1.593s.6-2.143,0-2.693-.453-3.9-.3-6.527a9.955,9.955,0,0,0-1.047-4.535c0-.4-3.945-4.281-3.945-4.632s-2.5-1.792-4-2.192-2.245-.7-2.2-.9-2.348-.974-2.348-.974-2.094-.151-2.9-1.193-3.239-1.354-3.312-1.359l-.044-.209-.044-.224c.185-.317.36-.643.521-.974.049-.1.093-.2.136-.3a4.276,4.276,0,0,0,2.46-.765,3.336,3.336,0,0,0,1.193-2.391,5.276,5.276,0,0,0-.58-2.654c-.438-.9-1.081-1.827-.862-2.8.1-.419.351-.789.487-1.2a3.166,3.166,0,0,0-.36-2.362c-.375-.721-.9-1.359-1.325-2.06a8,8,0,0,1-1.052-2.922,4.5,4.5,0,0,0-.39-1.588,3.04,3.04,0,0,0-.877-.886,8.767,8.767,0,0,0-5.358-1.627,25.976,25.976,0,0,1-4.067.248,14.9,14.9,0,0,1-2.372-.619c-1.676-.487-3.609-.7-5.065.258s-2.041,2.844-3.03,4.32c-.877,1.3-2.153,2.4-2.82,3.78v-.083a4.8,4.8,0,0,0-.37,1.008,7.178,7.178,0,0,0,.219,3.3,2.3,2.3,0,0,0,.809,1.461,4.681,4.681,0,0,0,1.749.346c-.024.093-.049.19-.068.283a11.2,11.2,0,0,0-.248,2.372,11.417,11.417,0,0,0,8.153,10.944v.3a7.965,7.965,0,0,1-.049.857h0s-5.022-1.033-6.366-.331-4,1.242-4.384,1.641-1.4.1-2.3,2.435-1,4.734-2.143,5.845-1.749,1.846-1.8,2.645.151.974-.3,1.242-1.1,1.3-.9,1.695a1.413,1.413,0,0,1-.55,1.5,1.661,1.661,0,0,0-.7,1.5s-.3,1.1-1,1.344-1.149,1.895-1.149,1.895l-2.265,2.606-4.491-4.968a1.9,1.9,0,0,0-2.669-.136l-2.211,1.963a4.355,4.355,0,0,0-2.206,1.315,5.722,5.722,0,0,0-1.14,1.7l-1.208,1.086a3.059,3.059,0,0,0-.312,3.385l2.879,3.181v.029a5.031,5.031,0,0,0-2.781,1.13c-4.291,3.789-4.345,7.277-3.692,8.869s6.093,7.725,6.093,7.725a24.33,24.33,0,0,0,7.725,6.3h0l-.034.034c-.093.1-.18.2-.268.312l-.073.1a.7.7,0,0,0-.068.1l-.083.117-.063.1-.088.146-.054.093-.1.195s-.024.044-.034.063-.083.18-.122.273l-.044.1a.545.545,0,0,1-.078.195l-.044.132a.823.823,0,0,1-.063.195l-.044.141q-.029.1-.058.219a.654.654,0,0,1-.034.131c-.01.044-.054.239-.078.36a1.211,1.211,0,0,0,0,.141,2.2,2.2,0,0,0-.044.258.473.473,0,0,1-.024.18,1.178,1.178,0,0,0-.034.248,1.226,1.226,0,0,0,0,.19v.945c-.1,5.845.239,6.678.239,6.678a3.234,3.234,0,0,0,2.65,1.987,3.492,3.492,0,0,0,.857-.044c2.6-.453,8.689-1.5,10.837-1.1a18.535,18.535,0,0,0,5.382-.438l.448-.088.312.974.974-.273.838.487.531.3c.974,3.341,4.988,2.2,4.988,2.2l.95.55,9.639.248a19.376,19.376,0,0,0,3.409,1.636,3.055,3.055,0,0,0,.487.107,21.624,21.624,0,0,0,2.684.049c.74,0,1.31-.049,1.31-.049s-.1-2.616-.239-5.548a78.617,78.617,0,0,0,8.928-.731c5.148-.906,7.306-5.587,8.085-8.085a22.843,22.843,0,0,1,.487,3.1,22.633,22.633,0,0,0,.8,2.689,8.984,8.984,0,0,0,1.1,2c3.794-1.3,1.5-3.239.7-4.087s.55-1.544.55-1.544,1.052-.7.974-1.349-.151-1.344,3.249-1.3S464.618,613.193,464.618,613.193Zm-52.739-31.815a23.177,23.177,0,0,0,.945,4.164,5.31,5.31,0,0,1,.112,1.641c-2.012-.161-4.106-.248-4.106-.248a.487.487,0,0,1,.107.258l-.317-.073-.463-.112,3.711-5.635Zm-7.345,11.689,3.483.555.292.044a12.428,12.428,0,0,0-.18,1.646c0,.049.078.112.19.185a5.235,5.235,0,0,0-.068.823c.058.278,1.685.872,3.556,1.369-.029.1-.054.195-.078.283h0c-1.651-.867-4.247-1.271-4.549-1.914s-9.137-3.736-9.137-3.736-.326-.17-.882-.438l2.328.438.638-.063a34.818,34.818,0,0,0,4.408.8Z" transform="translate(-211.571 -335.432)" fill="url(#linear-gradient)"/>
      <path id="Path_817" data-name="Path 817" d="M466.553,688.209s-1.388,8.368-8.416,9.6-30.49.974-30.49.974-13.414-1.948-18.265-13.263-7.973-15.844-3.814-16.039,26.584,7.574,27.87,7.671S467.79,659.945,466.553,688.209Z" transform="translate(-224.874 -408.28)" fill="#65617d"/>
      <path id="Path_818" data-name="Path 818" d="M466.553,688.209s-1.388,8.368-8.416,9.6-30.49.974-30.49.974-13.414-1.948-18.265-13.263-7.973-15.844-3.814-16.039,26.584,7.574,27.87,7.671S467.79,659.945,466.553,688.209Z" transform="translate(-224.874 -408.28)" fill="#fff" stroke="#2481c5" stroke-width="1"/>
      <path id="Path_819" data-name="Path 819" d="M403.372,713.664a3.21,3.21,0,0,0,2.616,2,3.406,3.406,0,0,0,.848-.049c2.572-.443,8.611-1.461,10.74-1.086a18.569,18.569,0,0,0,5.358-.434c1.12-.209,1.948-.409,1.948-.409s-1.977-6.585-2.226-6.78-8.928-5.416-8.928-5.416L406.864,701h0a3.609,3.609,0,0,0-2.323,1.369,7.285,7.285,0,0,0-1.388,4.671C403.031,712.841,403.372,713.664,403.372,713.664Z" transform="translate(-224.616 -424.447)" fill="#1fbc99"/>
      <path id="Path_820" data-name="Path 820" d="M403.38,713.664a3.21,3.21,0,0,0,2.616,2,28.069,28.069,0,0,1-1.861-2.718l.034-4.8a8.465,8.465,0,0,1,2.7-7.14h0s-3.614.248-3.711,6.04S403.38,713.664,403.38,713.664Z" transform="translate(-224.624 -424.447)" opacity="0.05"/>
      <path id="Path_821" data-name="Path 821" d="M460.529,689.671l6.385-5,10.048-9.9-2.723-.122c-.409.258-1.549,1.076-1.593,2.07-.049,1.208-2.713.083-4.1.774s-8.168,9.371-9.347,9.317-2.128-.6-2.62.239a.474.474,0,0,1-.039.054Z" transform="translate(-252.014 -410.931)" opacity="0.1"/>
      <path id="Path_822" data-name="Path 822" d="M406,702.378l.692.317c4.871,2.08,10.837,6.434,11.285,7.228.273.487,3.746,2.591,6.424,4.169,1.12-.209,1.948-.409,1.948-.409s-1.977-6.585-2.226-6.78-8.923-5.416-8.923-5.416L408.338,701h0A3.609,3.609,0,0,0,406,702.378Z" transform="translate(-226.09 -424.447)" opacity="0.1"/>
      <path id="Path_823" data-name="Path 823" d="M378.022,664.165c.643,1.583,6.04,7.671,6.04,7.671a23.576,23.576,0,0,0,8.28,6.536c4.871,2.08,10.842,6.434,11.285,7.228.287.487,4.155,2.835,6.877,4.437l.614.356,1.349.784.716.409s1.656-1.33,3.307-2.669,3.254-2.65,3.278-2.723c.049-.151.692-1.831.541-1.948-.078-.049-.414-.735-1.042-1.529a7.019,7.019,0,0,0-2.518-2.085,7.15,7.15,0,0,1-3.268-3.409s-.219-.156-.546-.365a6.626,6.626,0,0,0-2.226-.974c-1.091-.136-3.117-2.362-3.117-2.362a6.1,6.1,0,0,1-1.948-2.031c-.521-1.086-8.2-6.332-8.908-6.819L415.36,676.6l4.457,2.859,6.385-5,10.048-9.9-3.317-.146c-4.871-.214-13.555-.545-14.651-.3a8.28,8.28,0,0,1-2.723.175,9.546,9.546,0,0,1-4.106-.75c-1.632-.862-4.213-1.266-4.51-1.9s-9.059-3.711-9.059-3.711-11.928-6.332-16.185-2.572S377.369,662.582,378.022,664.165Z" transform="translate(-211.584 -400.421)" fill="#fff" stroke="#2481c5" stroke-width="1"/>
      <path id="Path_824" data-name="Path 824" d="M457.31,584.627l1.534,5.1,1.977,11.485,7.277.487,2.109-3.5,2.1-3.483s1.31-4.642,2.255-9.132c.833-3.97,1.374-7.827.487-8.246-.8-.37-1.33-1.71-1.676-3.146-.044-.175-.083-.356-.117-.536a28.009,28.009,0,0,1-.487-3.692s-15.25-.794-13.121,5.494a9.925,9.925,0,0,1,.575,3.341,7.955,7.955,0,0,1-.049.852A7.126,7.126,0,0,1,457.31,584.627Z" transform="translate(-252.409 -357.218)" fill="#fff" stroke="#3397e1" stroke-width="1"/>
      <path id="Path_825" data-name="Path 825" d="M450.8,594.041l.546,8.665,1.237,7.374,1.388,3.409,1.237,18.684s11.933,1.383,14.836,0a1.271,1.271,0,0,0,.526-.409c3.507-5.294,2.357-20.627,2.357-20.627l1.349-9.917-.891-5.139-2.153-.229-1.661-.175s-.375.458-.911,1.174c-1.461,1.948-4.169,5.747-3.989,7.34.248,2.177-.3,4.384-1.14,4.749s-1.534.945-1.68.351a2.679,2.679,0,0,1-.151-1.583,12.844,12.844,0,0,0-.643-3.409s-1.335-3.02-1.237-4.306-.146-2.771-.546-3.117-.94-.7-.487-2.279-1.948-4.666-1.948-4.666Z" transform="translate(-249.069 -367.474)" fill="#3397e1"/>
      <path id="Path_826" data-name="Path 826" d="M483.148,609.818l.487,14.8,2.859,1.588a1.237,1.237,0,0,0,.526-.414c3.507-5.294,2.357-20.627,2.357-20.627l1.335-9.9-.891-5.138-2.153-.229c.833-3.97,1.378-7.822.487-8.241-.8-.375-1.335-1.71-1.675-3.146h0l-1.549,10.467s.131.94.175,1.914a5.42,5.42,0,0,1-.127,1.846,6.156,6.156,0,0,0-.1,2.474c-.891,1.573-1.339,4.486-1.554,7.306C483.036,606.258,483.148,609.818,483.148,609.818Z" transform="translate(-265.651 -361.617)" opacity="0.1"/>
      <path id="Path_827" data-name="Path 827" d="M486.8,578s2.494.312,3.283,1.349,2.874,1.188,2.874,1.188a11.351,11.351,0,0,1,2.323.974c-.054.18.7.487,2.182.891s3.96,1.831,3.96,2.182,3.9,4.2,3.9,4.6a9.919,9.919,0,0,1,1.037,4.505c-.146,2.625-.3,5.937.3,6.483s0,2.674,0,2.674a1.461,1.461,0,0,0-.049,1.583c.487.891-.1,4.6-.1,4.6l.054,3.862s-.545,2.435.1,2.523-.1,1.188-.1,1.188-.545,1.982.146,2.874.891,4.7.891,4.7l10.594,15.4s.146,2.82-3.219,2.771-3.317.643-3.215,1.286-.94,1.339-.94,1.339-1.339.692-.546,1.534,3.069,2.771-.692,4.057a8.952,8.952,0,0,1-1.091-1.977,23.073,23.073,0,0,1-.794-2.674s-.346-3.765-1.037-4.257-.594-2.874-.594-2.874.974-1.948-.395-2.723-21.484-11.928-21.484-11.928l-.487-14.8s-.346-10.939,1.734-14.612a6.155,6.155,0,0,1,.1-2.474c.346-.891-.049-3.765-.049-3.765Z" transform="translate(-265.933 -361.355)" fill="#fff" stroke="#2481c5" stroke-width="1"/>
      <path id="Path_828" data-name="Path 828" d="M444.4,589.614s-4.978-1.028-6.332-.336-3.96,1.237-4.354,1.636-1.388.1-2.279,2.435-.974,4.7-2.128,5.791-1.734,1.831-1.783,2.62.151.974-.3,1.237-1.086,1.291-.891,1.685,10.3,9.108,10.3,9.108a23.1,23.1,0,0,0,.94,4.159c.453.843-.487,12.425-1.486,13.214s6.7.716,6.7.716.351-7.6.648-8-.2-8.514-.2-8.514-.049-6.931.594-8.767.57-7.92.57-7.92.57-3.653,1.261-4.505S444.4,589.614,444.4,589.614Z" transform="translate(-236.5 -367.017)" opacity="0.1"/>
      <path id="Path_829" data-name="Path 829" d="M444.1,589.308s-4.978-1.023-6.332-.331-3.96,1.237-4.354,1.632-1.388.1-2.275,2.435-.974,4.7-2.128,5.791-1.734,1.831-1.783,2.625.146.974-.3,1.237-1.091,1.286-.891,1.685,10.3,9.108,10.3,9.108a22.979,22.979,0,0,0,.94,4.155c.453.838-.487,12.425-1.486,13.219s6.682.716,6.682.716.346-7.6.643-7.993-.2-8.514-.2-8.514-.049-6.931.594-8.767.575-7.92.575-7.92.565-3.653,1.257-4.505S444.1,589.308,444.1,589.308Z" transform="translate(-236.35 -366.863)" fill="#fff" stroke="#2481c5" stroke-width="1"/>
      <path id="Path_830" data-name="Path 830" d="M461.865,575.48a9.926,9.926,0,0,1,.575,3.341,11.339,11.339,0,0,0,13.024-5.143,28.025,28.025,0,0,1-.487-3.692S459.737,569.192,461.865,575.48Z" transform="translate(-254.641 -357.228)" opacity="0.1"/>
      <path id="Path_831" data-name="Path 831" d="M446.64,553.3a11.31,11.31,0,1,0,.244-2.357A11.31,11.31,0,0,0,446.64,553.3Z" transform="translate(-246.936 -342.874)" fill="#fff" stroke="#3397e1" stroke-width="1"/>
      <path id="Path_832" data-name="Path 832" d="M421.241,619.11l-2.723.843a1.4,1.4,0,0,1-.546,1.461,1.651,1.651,0,0,0-.692,1.461s-.3,1.091-.974,1.339-1.135,1.88-1.135,1.88l-2.279,2.625s-.843.692-.692,1.037-.891.443-.891.443l.546,8.816,4.7.886,2.922-.3,2.377-.886,2.08-1.242.94-2.435,4.155-6.332Z" transform="translate(-228.813 -382.442)" fill="#3f3d56"/>
      <path id="Path_833" data-name="Path 833" d="M399.909,637.71s-6.04-8.713-10.545-4.008,1.831,12.323,3.317,12.074,8.567-.643,8.567-.643Z" transform="translate(-216.74 -389.212)" fill="#ee8e9e"/>
      <path id="Path_834" data-name="Path 834" d="M447.14,550.964a1.374,1.374,0,0,1,.833.375c.38.4.4,1.12.9,1.374a1.053,1.053,0,0,0,.589.068c1.315-.19,2.075-1.675,3.341-2.085a3.409,3.409,0,0,1,2.216.19,1.685,1.685,0,0,1,.731.487c.424.55.127,1.354.321,2.016.273.921,1.369,1.286,2.323,1.4a4.032,4.032,0,0,1,2.655.906,2.435,2.435,0,0,1,.487,1.914,1.529,1.529,0,0,0,0,.711c.263.74,1.549.633,1.885.044.244-.424.17-.779.745-.9a2.436,2.436,0,0,1,1.213.209,8.821,8.821,0,0,0,3.137.487,11.339,11.339,0,1,0-21.353-7.179Z" transform="translate(-247.192 -342.891)" opacity="0.1"/>
      <path id="Path_835" data-name="Path 835" d="M458.577,551.617a1.529,1.529,0,0,1,0-.711,2.435,2.435,0,0,0-.487-1.914,4.067,4.067,0,0,0-2.654-.906c-.95-.122-2.051-.487-2.323-1.4-.195-.662.1-1.461-.322-2.016a1.631,1.631,0,0,0-.731-.487,3.409,3.409,0,0,0-2.216-.195c-1.266.409-2.026,1.895-3.341,2.085a1.057,1.057,0,0,1-.589-.068c-.487-.253-.521-.974-.9-1.374-.6-.638-1.744-.229-2.479-.7a2.255,2.255,0,0,1-.8-1.461,7.1,7.1,0,0,1-.219-3.283c.429-1.841,2.075-3.1,3.127-4.676.974-1.461,1.529-3.317,3-4.291s3.361-.75,5.022-.258a14.065,14.065,0,0,0,2.352.619,26.124,26.124,0,0,0,4.028-.244,8.63,8.63,0,0,1,5.319,1.617,2.921,2.921,0,0,1,.867.877,4.423,4.423,0,0,1,.39,1.578,8.008,8.008,0,0,0,1.042,2.893c.419.7.94,1.33,1.315,2.051a3.132,3.132,0,0,1,.356,2.343c-.127.409-.375.774-.487,1.193-.219.974.419,1.89.852,2.781a5.25,5.25,0,0,1,.58,2.64,3.332,3.332,0,0,1-1.188,2.372,4.246,4.246,0,0,1-2.508.76,8.929,8.929,0,0,1-3.2-.487,2.436,2.436,0,0,0-1.208-.209c-.58.117-.487.487-.75.9C460.126,552.25,458.84,552.357,458.577,551.617Z" transform="translate(-244.256 -336.496)" fill="#1fbc99" stroke="#1fbc99" stroke-width="1"/>
      <path id="Path_836" data-name="Path 836" d="M459.437,690.255l6.385-5,10.048-9.9-3.317-.146a2.162,2.162,0,0,0-.7,1.349c-.049,1.213-2.713.088-4.1.779s-8.168,9.371-9.347,9.313-2.128-.6-2.62.239l-.039.058a1.408,1.408,0,0,1-.755.448Z" transform="translate(-251.219 -411.218)" opacity="0.1"/>
      <path id="Path_837" data-name="Path 837" d="M437.69,686.271,440.9,696.5l.487,1.607,1.529-.419,3.37-.925,15-4.121a13.012,13.012,0,0,0,5.4-1.461,16.33,16.33,0,0,1,9.322-2.036c1.982.185,4.189-.667,6.02-4.052,0,0,4.155-12.274-6.332-15.786s-11,1.865-11,1.865l-.141.088c-.409.258-1.549,1.076-1.593,2.07-.049,1.208-2.713.083-4.1.774s-8.158,9.41-9.337,9.356-2.128-.6-2.62.239a.482.482,0,0,1-.039.054c-.365.487-1.461.623-2.2.643h-.687l-.093.029-.76.224Z" transform="translate(-242.345 -407.579)" fill="#fff" stroke="#2481c5" stroke-width="1"/>
      <path id="Path_838" data-name="Path 838" d="M439.4,657.749l1.544.249.643-6.385s-.706-.107-1.593-.312C440.228,652.187,439.692,655.635,439.4,657.749Z" transform="translate(-243.222 -398.953)" opacity="0.1"/>
      <path id="Path_839" data-name="Path 839" d="M480.1,603.117s4.6-1.335,3.468,11.733a36.5,36.5,0,0,1-9.654,21.333s-9.8,4.306-14.208,3.614-7.613-.843-7.613-.843a11.267,11.267,0,0,0-4.457-1.188c-2.474-.1-7.671-1.632-7.793-2.128s1.291-7.769.7-8.314c0,0,6.931.282,7.622.784s1.68.141,2.435,0,3.02-2.119,7.525-.39a4.5,4.5,0,0,0,2.128-.248,2.133,2.133,0,0,1,1.549-.1,4.258,4.258,0,0,0,1.072-.546c.151-.195,1.339,0,1.339,0a.526.526,0,0,0,.74-.346,3.243,3.243,0,0,1,.692-1.086s1.339-7.525,3.862-10.345a1.617,1.617,0,0,0,.546-1.437C469.85,612.82,474.156,601.52,480.1,603.117Z" transform="translate(-243.445 -374.159)" opacity="0.1"/>
      <path id="Path_840" data-name="Path 840" d="M448.85,701.794l6.536,7.915.044-.049c.049-.146.692-1.831.541-1.948a9.089,9.089,0,0,0-3.565-3.614,6.785,6.785,0,0,1-2.8-2.547Z" transform="translate(-248.069 -424.729)" opacity="0.1"/>
      <path id="Path_841" data-name="Path 841" d="M448.852,720.94l.716.409s1.656-1.33,3.307-2.669,3.254-2.65,3.278-2.723c.049-.151.692-1.831.541-1.948-.078-.049-.414-.735-1.042-1.529-4.432-1.242-1.607,1.836-1.232,1.977,0,0-5.4-1.237-5.694,4.637A7.014,7.014,0,0,0,448.852,720.94Z" transform="translate(-247.998 -430.184)" opacity="0.1"/>
      <path id="Path_842" data-name="Path 842" d="M454.826,723.444l.945.545,9.551.248a19.294,19.294,0,0,0,3.38,1.627,3.135,3.135,0,0,0,.487.107,22.278,22.278,0,0,0,2.664.049c.731,0,1.3-.049,1.3-.049s-.453-12.05-.794-13.316c-.161-.609-.974-.487-1.753-.17a11.3,11.3,0,0,0-1.71.867,30.45,30.45,0,0,0-4.705.74c-.648.351-2.474-.2-3.614,0s-3.166-1.339-3.166-1.339c-5.543-1.831-2.435,1.583-2.031,1.734,0,0-5.392-1.237-5.689,4.637S454.826,723.444,454.826,723.444Z" transform="translate(-248.493 -430.199)" fill="#1fbc99"/>
      <path id="Path_843" data-name="Path 843" d="M488.605,718.8c.1,2.494,2.046,5.591,3.21,7.228.731,0,1.3-.049,1.3-.049s-.453-12.05-.794-13.316c-.161-.609-.974-.487-1.753-.171C489.6,714.291,488.522,716.79,488.605,718.8Z" transform="translate(-268.459 -430.208)" fill="#565387"/>
      <path id="Path_844" data-name="Path 844" d="M488.605,718.8c.1,2.494,2.046,5.591,3.21,7.228.731,0,1.3-.049,1.3-.049s-.453-12.05-.794-13.316c-.161-.609-.974-.487-1.753-.171C489.6,714.291,488.522,716.79,488.605,718.8Z" transform="translate(-268.459 -430.208)" fill="#1fbc99" opacity="0.904"/>
      <path id="Path_846" data-name="Path 846" d="M417.59,676.26a19.762,19.762,0,0,1,8.767,7.009Z" transform="translate(-232.035 -411.756)" opacity="0.1"/>
      <g id="Group_29" data-name="Group 29" transform="translate(197.168 201.726)" opacity="0.1">
        <path id="Path_847" data-name="Path 847" d="M496.555,554.3l-.029.107a3.322,3.322,0,0,1-.166.414A2.929,2.929,0,0,1,496.555,554.3Z" transform="translate(-469.607 -550.925)"/>
        <path id="Path_848" data-name="Path 848" d="M441.534,548.344a4.452,4.452,0,0,1,.365-.974c-.024.083-.049.17-.068.258a7.1,7.1,0,0,0,.219,3.283,2.255,2.255,0,0,0,.8,1.461c.735.487,1.875.063,2.474.7.385.4.4,1.125.9,1.374a.974.974,0,0,0,.594.068c1.315-.185,2.075-1.671,3.341-2.08a3.341,3.341,0,0,1,2.211.19,1.631,1.631,0,0,1,.735.487c.424.546.127,1.354.321,2.017.273.916,1.369,1.281,2.318,1.4a4.063,4.063,0,0,1,2.659.906,2.4,2.4,0,0,1,.487,1.914,1.573,1.573,0,0,0,0,.706c.263.745,1.549.633,1.885.049.244-.429.17-.779.745-.9a2.484,2.484,0,0,1,1.213.209,8.918,8.918,0,0,0,3.2.487,4.315,4.315,0,0,0,2.508-.76,2.994,2.994,0,0,0,.77-.94,3.166,3.166,0,0,1-1.067,1.68,4.247,4.247,0,0,1-2.508.76,8.914,8.914,0,0,1-3.2-.487,2.436,2.436,0,0,0-1.213-.209c-.575.117-.487.487-.745.9-.336.589-1.622.7-1.885-.044a1.592,1.592,0,0,1,0-.711,2.4,2.4,0,0,0-.487-1.914,4.081,4.081,0,0,0-2.659-.906c-.955-.122-2.046-.487-2.318-1.4-.195-.662.1-1.461-.321-2.016a1.632,1.632,0,0,0-.731-.487,3.41,3.41,0,0,0-2.216-.195c-1.266.409-2.026,1.895-3.341,2.085a1.072,1.072,0,0,1-.594-.068c-.487-.253-.516-.974-.9-1.374-.6-.638-1.739-.229-2.474-.7a2.255,2.255,0,0,1-.8-1.461A7.1,7.1,0,0,1,441.534,548.344Z" transform="translate(-441.433 -547.37)"/>
      </g>
      <path id="Path_849" data-name="Path 849" d="M494.163,628.22c-.906,1.222-1.948,2.357-2.742,3.653a6.93,6.93,0,0,0-1.2,4.32,11.477,11.477,0,0,0,1.734-3.1,43.978,43.978,0,0,1,3.327-5.007c.214-.317,1.583-2.153.891-2.24C495.6,625.775,494.489,627.8,494.163,628.22Z" transform="translate(-269.282 -385.897)" opacity="0.1"/>
      <path id="Path_850" data-name="Path 850" d="M389.737,589.246l9.921,18.762c.3.555-.511,1.564-1.8,2.25l-49.52,26.189c-1.291.682-2.581.784-2.874.224l-9.921-18.757c-.3-.56.448-1.685,1.739-2.367l49.52-26.189C388.1,588.671,389.445,588.686,389.737,589.246Z" transform="translate(-189.916 -366.912)" fill="#fff"/>
      <g id="Group_30" data-name="Group 30" transform="translate(145.561 221.922)" opacity="0.2">
        <path id="Path_851" data-name="Path 851" d="M389.737,589.246l9.921,18.762c.3.555-.511,1.564-1.8,2.25l-49.52,26.189c-1.291.682-2.581.784-2.874.224l-9.921-18.757c-.3-.56.448-1.685,1.739-2.367l49.52-26.189C388.1,588.671,389.445,588.686,389.737,589.246Z" transform="translate(-335.477 -588.834)" fill="#2481c5"/>
      </g>
      <rect id="Rectangle_108" data-name="Rectangle 108" width="29.18" height="1.028" transform="translate(172.345 244.019) rotate(-27.87)" fill="#2481c5"/>
      <rect id="Rectangle_109" data-name="Rectangle 109" width="29.18" height="1.028" transform="translate(173.52 246.243) rotate(-27.87)" fill="#2481c5" opacity="0.2"/>
      <rect id="Rectangle_110" data-name="Rectangle 110" width="29.18" height="1.028" transform="translate(174.693 248.457) rotate(-27.87)" fill="#2481c5" opacity="0.2"/>
      <rect id="Rectangle_111" data-name="Rectangle 111" width="29.18" height="1.028" transform="translate(175.868 250.68) rotate(-27.87)" fill="#2481c5" opacity="0.2"/>
      <path id="Path_853" data-name="Path 853" d="M404.66,643.927c-.049,6.531,13.467,7.92,13.467,7.92l3.453.545,1.544.249.643-6.385s-.706-.107-1.593-.312c-1.305-.307-3-.833-3.356-1.573C418.225,643.133,404.709,637.39,404.66,643.927Z" transform="translate(-225.402 -393.596)" fill="#fff" stroke="#3397e1" stroke-width="1"/>
      <path id="Path_854" data-name="Path 854" d="M479.838,601.063s4.6-1.335,3.468,11.733a36.5,36.5,0,0,1-9.654,21.333s-9.8,4.306-14.208,3.614-7.622-.843-7.622-.843a11.266,11.266,0,0,0-4.457-1.188c-2.474-.1-7.671-1.632-7.793-2.128s1.291-7.793.7-8.314c0,0,6.931.282,7.622.784s1.68.141,2.435,0,3.02-2.124,7.525-.39a4.5,4.5,0,0,0,2.128-.248,2.134,2.134,0,0,1,1.549-.1,4.254,4.254,0,0,0,1.072-.546c.151-.195,1.339,0,1.339,0a.521.521,0,0,0,.74-.346,3.293,3.293,0,0,1,.692-1.091s1.339-7.52,3.862-10.345a1.6,1.6,0,0,0,.546-1.432C469.59,610.765,473.9,599.494,479.838,601.063Z" transform="translate(-243.306 -373.108)" fill="#fff" stroke="#2481c5" stroke-width="1"/>
      <path id="Path_855" data-name="Path 855" d="M831.787,267.611v27.275c0,.813-1.52,1.461-3.409,1.461H756.409c-1.88,0-3.409-.658-3.409-1.461V267.611c0-.813,1.52-1.641,3.409-1.641h71.978C830.268,265.985,831.787,266.8,831.787,267.611Z" transform="translate(-404.079 -201.303)" fill="#fff"/>
      <g id="Group_31" data-name="Group 31" transform="translate(340.504 69.63)" opacity="0.1">
        <path id="Path_856" data-name="Path 856" d="M814.492,277.8v27.275c0,.809-1.524,1.461-3.409,1.461H739.13c-1.88,0-3.409-.662-3.409-1.461V277.8c0-.813,1.52-1.641,3.409-1.641h71.963C812.968,276.16,814.492,276.988,814.492,277.8Z" transform="translate(-735.72 -276.16)" fill="#1fbc99"/>
      </g>
      <path id="Path_857" data-name="Path 857" d="M831.787,267.611v27.275c0,.813-1.52,1.461-3.409,1.461H756.409c-1.88,0-3.409-.658-3.409-1.461V267.611c0-.813,1.52-1.641,3.409-1.641h71.978C830.268,265.985,831.787,266.8,831.787,267.611Z" transform="translate(-404.079 -201.303)" fill="#fff"/>
      <g id="Group_32" data-name="Group 32" transform="translate(348.921 64.667)" opacity="0.2">
        <path id="Path_858" data-name="Path 858" d="M831.787,267.611v27.275c0,.813-1.52,1.461-3.409,1.461H756.409c-1.88,0-3.409-.658-3.409-1.461V267.611c0-.813,1.52-1.641,3.409-1.641h71.978C830.268,265.985,831.787,266.8,831.787,267.611Z" transform="translate(-753 -265.97)" fill="#1fbc99"/>
      </g>
      <rect id="Rectangle_112" data-name="Rectangle 112" width="37.484" height="1.325" transform="translate(383.512 74.408)" fill="#1fbc99"/>
      <rect id="Rectangle_113" data-name="Rectangle 113" width="37.484" height="1.325" transform="translate(383.512 77.633)" fill="#1fbc99" opacity="0.2"/>
      <rect id="Rectangle_114" data-name="Rectangle 114" width="37.484" height="1.325" transform="translate(383.512 80.857)" fill="#1fbc99" opacity="0.2"/>
      <rect id="Rectangle_115" data-name="Rectangle 115" width="37.484" height="1.325" transform="translate(383.512 84.081)" fill="#1fbc99" opacity="0.2"/>
      <path id="Path_860" data-name="Path 860" d="M846.616,509.394c-.672-2.435-1.111-4.569-1.111-4.569a9.5,9.5,0,0,0-1.247-4.632l-.024-.667h0l-.195-4.948a16.675,16.675,0,0,1,1.149-2.63c.828-1.583-.278-7.233-.278-7.233s-3.6-7.886-3-12.995-7.632-22.3-7.632-22.3a22.4,22.4,0,0,1,.521-5.007,3.986,3.986,0,0,0,.054-1.052,1.124,1.124,0,0,0,0-.127v.039c-.244-3.346-3.132-9.522-3.132-9.522l-.107-11.987a35.15,35.15,0,0,0-1.7-16.492c-1.091-3.268-1.807-5.893-2.275-7.92-.054-.229-.107-.448-.151-.662,5.645-1.081,9.951-1.948,9.951-1.948s-3.819-13.638-6.137-15.976-4.384-9.834-4.384-9.834-1.529-9.688.229-12.6,1.826-7.871,1.826-7.871,4.15-3.268,4.632-4.666a22.773,22.773,0,0,0,1.188-6.166c-.063-1.632-.653-3.083-.487-3.95s-1.408-4.086-.755-5.665a4.2,4.2,0,0,0,.229-1.505v-.063a21,21,0,0,0-.531-4.023,11.465,11.465,0,0,0-4.315-2.1l-.107-.365-.278-.974c-.146-.088-.287-.166-.429-.234V318.4l-.093-1.4.545-3.171c1.106-5.518-6.225-6.054-6.225-6.054a3.809,3.809,0,0,0-2.133-1.729c-1.49-.487.068,8.236.779,8.767a33.284,33.284,0,0,1,3.049,4.384h0l.136.214a3.321,3.321,0,0,0-.321.365l.351,1.885.054.292a7.633,7.633,0,0,0-1.086,2.026,4.241,4.241,0,0,1,1.184,3.059,9.391,9.391,0,0,0,.589,3.77c-.083-.088-1.062-1.067-1.987-.779s-3.521,1.169-3.521,1.169-1.948.419-1.749.843-1.242,2.377-1.242,2.377L811,329.634c-.058-.146-.117-.292-.17-.443a12.474,12.474,0,0,1-.541-2.167,11.848,11.848,0,0,0,1.661-.6,3.639,3.639,0,0,0,1.422-.974,5.964,5.964,0,0,0,.76-2.3,31.985,31.985,0,0,1,1.783-4.427,14.16,14.16,0,0,0,.716-7.822,5.194,5.194,0,0,0-.9-2.255c-.906-1.149-2.479-1.573-3.648-2.469s-1.948-2.309-3.3-2.966a6.144,6.144,0,0,0-4-.19,21.368,21.368,0,0,0-7.355,3,3.768,3.768,0,0,1-2.435.916,3.319,3.319,0,0,1-1.846-1.252.4.4,0,0,1,0-.073l-.063-.063a9.3,9.3,0,0,0-.662,3.965,2.735,2.735,0,0,0,.049.628v.219a1.186,1.186,0,0,1,0,.185h0a1.114,1.114,0,0,1-.029.283,2.026,2.026,0,0,1-.487.726,4.386,4.386,0,0,0-.409.6.746.746,0,0,1,.063-.219,3.077,3.077,0,0,0-.487,1.68,1.656,1.656,0,0,0,.438,1.174,5.724,5.724,0,0,0,.886.658,9.514,9.514,0,0,0-.093,1.753,10.184,10.184,0,0,0,5.289,8.489c.068.146.132.292.2.443a12.6,12.6,0,0,1,1.174,5.7,2.972,2.972,0,0,1-.049.419c-.019.136-.127.151-.18.229h0s-8.684.419-10.8-1.354-4.987,4.72-4.987,4.72-3.088.726-3.736.146-4.276.078-4.276.078a7.832,7.832,0,0,0-5.5-1.773,16.116,16.116,0,0,0-4.072-2.06h0l-.1-.029h0a4.471,4.471,0,0,0-1.948-.175s-4.408-3.366-5.728-5.212-7.52-8.645-7.549-8.679l-.034-.336-.107-1.023a3.683,3.683,0,0,1-.531.068l-.132-.351a18.747,18.747,0,0,0-1.373-2.844s-.049-1.3.317-1.632-.351-5.056-.351-5.056-4.194-8.85-7.384-2c0,0-6.332,4.6-.687,9.444,0,0,2.226.974,2.567,1.8.224.536,1.023,2.026,1.559,3.015.088.166.17.312.239.443l-.058.054.112.843.044.326c-1,.623-1.68,1.232-1.5,1.666a9.411,9.411,0,0,1,.711,2.3s7.929,9.181,9.064,13.195c0,0,20.749,11.275,27.456,11.879l-.877,6.059a48.027,48.027,0,0,0-.078,4.919c.136,1.291-.526,7.179-.526,7.179s-.828,8.655-1.758,9.9-.56,6.4-.56,6.4a43.524,43.524,0,0,1-1.052,7.374,18.808,18.808,0,0,0,0,7.33s-3.083,7.881,4.812,2.314c0,0,3.965-.4,8.533-.731v.458c0,.589.029,1.227.049,1.9.107,4.442.317,10.559.7,15.182.677,8.168,3.789,24.241,3.789,24.241l.312,8.134a11.176,11.176,0,0,0-.141,2.333,15.1,15.1,0,0,0,2.484,8.08l.833,5.4a21.331,21.331,0,0,1,1.71,5.655,2.919,2.919,0,0,1-.044.521,3.6,3.6,0,0,0-.039.833c0,2.465,1.724,8.3,1.724,8.3s.317,5.937,1.218,6.249c.774.263-.882,3.463-1.378,4.384q-.024-.084-.039-.17c-.063.122-.1.185-.1.185a4.233,4.233,0,0,0-.219,1.515,2.153,2.153,0,0,0,1.067,2.051c1.729.974,2.669,1.792,1.252,2.192a15.119,15.119,0,0,0-1.558.395c0-.068-.058-.136-.083-.2a.974.974,0,0,0-.546,1.062,4.482,4.482,0,0,0,.609,2,21.636,21.636,0,0,0,2.581,4.3l.677-.1a3.548,3.548,0,0,1-.365.75,2.888,2.888,0,0,1-.974.93,3.072,3.072,0,0,1-1.2.487,3.41,3.41,0,0,0-2.474,1.325c-.843,1.179-1.339,2.766.487,4.072l6.449,1.948s11,1,10.321-1.432-1.111-4.569-1.111-4.569a9.742,9.742,0,0,0-1.057-4.32,5.343,5.343,0,0,0-.409-.628l.385-.058s.589-5.455,1.617-6.531c.239-.244.287-.429.224-.57.1-.3-.185-.487-.55-.546a.783.783,0,0,1-.068.214,5.46,5.46,0,0,0-1.067-.078s-.487-2.825.653-3.9a1.091,1.091,0,0,0,.19-.852,4.615,4.615,0,0,0-.166-1.149.3.3,0,0,0-.034.068,42.243,42.243,0,0,0-2.815-6.58s-.185-2.581.487-3.638-.633-14.037-.633-14.037.029-6.3-.886-9.191.735-6.41.735-6.41a.91.91,0,0,0-.029-.19v-.044s-.054-.385-.141-.974a.309.309,0,0,1,0,.063c-.239-1.656-.7-4.656-.974-6.044-.434-1.948-.351-11.456-.351-11.456l1.461-4.111L814.168,435l3.385,9.186a7.936,7.936,0,0,1,1.685,3.9v.292a5.338,5.338,0,0,0,0,.623,5.542,5.542,0,0,0,1.047,3.273s.974,4.384,2.26,5.436a4.961,4.961,0,0,1,1.374,3.224s1.758,6.332,2.513,7.408c.633.921.765,3.512.789,4.306h0v.234s.3,2.27.365,4.184v.633a6.93,6.93,0,0,1-.127,1.554v-.229a16.373,16.373,0,0,0-.3,3.984c.049,2.294.487,4.992,1.948,6.531,2.508,2.664,4.008,2.26,4.008,2.26s-1.023,3.487-2.435,4.233a1.034,1.034,0,0,0-.151.1,1.383,1.383,0,0,0-.039-.195,1.665,1.665,0,0,0-.37,1.3,9.3,9.3,0,0,0,1.948,5.041,2.833,2.833,0,0,0,1.227.653,2.392,2.392,0,0,1-.214.151,4.6,4.6,0,0,1-.487.248,2.385,2.385,0,0,1-.721.214,3.433,3.433,0,0,0-2.474,1.325c-.838,1.179-1.339,2.762.487,4.072l6.449,1.948S847.312,511.829,846.616,509.394Z" transform="translate(-396.109 -219.972)" fill="url(#linear-gradient-2)"/>
      <path id="Path_861" data-name="Path 861" d="M868.244,726.148,862,724.2c-1.749-1.31-1.266-2.9-.453-4.077a3.288,3.288,0,0,1,2.391-1.32,2.924,2.924,0,0,0,1.159-.487,2.728,2.728,0,0,0,.94-.93,4.56,4.56,0,0,0,.614-2.406s6.682-2.24,8.611-.331a5.2,5.2,0,0,1,.867,1.169,10.058,10.058,0,0,1,1.028,4.325s.429,2.133,1.081,4.569S868.244,726.148,868.244,726.148Z" transform="translate(-459.381 -431.052)" fill="#1fbc99"/>
      <path id="Path_862" data-name="Path 862" d="M929.884,717.569l-6.239-1.948c-1.753-1.305-1.271-2.893-.458-4.067a3.253,3.253,0,0,1,2.391-1.32,2.433,2.433,0,0,0,.7-.219,4.021,4.021,0,0,0,.487-.249c1.69-1.013,1.554-3.336,1.554-3.336s6.687-2.24,8.611-.331a4.759,4.759,0,0,1,.682.852,9.76,9.76,0,0,1,1.213,4.637s.429,2.143,1.081,4.574S929.884,717.569,929.884,717.569Z" transform="translate(-490.999 -426.667)" fill="#1fbc99"/>
      <path id="Path_863" data-name="Path 863" d="M880.765,714.688a5.207,5.207,0,0,1,.867,1.169h0L871.54,717.42a4.559,4.559,0,0,0,.614-2.406S878.836,712.778,880.765,714.688Z" transform="translate(-464.883 -431.072)" opacity="0.1"/>
      <path id="Path_864" data-name="Path 864" d="M941.61,706.931l.073,1.9c-1.461,2.659-9.118,2.382-11.383,1.164a4.033,4.033,0,0,0,.487-.248c1.69-1.013,1.554-3.336,1.554-3.336s6.687-2.241,8.611-.331A4.761,4.761,0,0,1,941.61,706.931Z" transform="translate(-495.023 -426.656)" opacity="0.1"/>
      <path id="Path_865" data-name="Path 865" d="M897.378,586.295a16.712,16.712,0,0,0-1.106,2.63l.258,6.819c-1.612,2.922-10.6,2.309-11.87.8s-2.713-5.5-1.359-6.244,2.338-4.228,2.338-4.228-1.461.4-3.9-2.265-1.978-8.806-1.6-10.287-.248-6.376-.248-6.376-.044-3.448-.774-4.539-2.435-7.408-2.435-7.408a5.1,5.1,0,0,0-1.33-3.229c-1.247-1.076-2.192-5.436-2.192-5.436a5.65,5.65,0,0,1-1-3.668c.175-2.163-1.637-4.423-1.637-4.423l-3.288-9.186-3.025-6.872-1.388,4.116s-.068,9.488.356,11.456,1.14,7.2,1.14,7.2-1.593,3.512-.7,6.41.872,9.2.872,9.2,1.271,12.971.623,14.032-.487,3.638-.487,3.638,3.823,7.442,2.742,8.519-.628,3.9-.628,3.9,2.435-.093,1.422.974-1.564,6.532-1.564,6.532l-10.365,1.607a21.593,21.593,0,0,1-2.5-4.306c-1.5-3.137.151-2.849,1.525-3.249s.487-1.222-1.213-2.2-.818-3.331-.818-3.331,2.333-4.315,1.461-4.627S853.494,576,853.494,576s-1.992-6.994-1.637-8.908-1.627-6.4-1.627-6.4l-.809-5.4a14.924,14.924,0,0,1-2.289-10.175l-.3-8.382s-3.034-16.073-3.692-24.265c-.424-5.231-.638-12.381-.735-16.847-.054-2.5-.073-4.164-.073-4.164l37.051-5.3a30.942,30.942,0,0,0,.886,5.5c.458,2.026,1.154,4.651,2.216,7.92a36.359,36.359,0,0,1,1.671,16.5l.117,11.982s3.58,7.881,3,10.667a23.16,23.16,0,0,0-.487,5.022s7.993,17.2,7.413,22.307,2.922,13,2.922,13S898.181,584.712,897.378,586.295Z" transform="translate(-449.9 -314.242)" fill="#fff" stroke="#2481c5" stroke-width="1"/>
      <path id="Path_866" data-name="Path 866" d="M908.13,599.268,919.4,597.32S913.234,604.119,908.13,599.268Z" transform="translate(-483.652 -371.265)" fill="#2481c5" opacity="0.05"/>
      <path id="Path_867" data-name="Path 867" d="M925.046,574.74s.541,3.989-1.856,5.591C923.2,580.332,927.574,579.474,925.046,574.74Z" transform="translate(-491.376 -359.683)" fill="#2481c5" opacity="0.1"/>
      <path id="Path_868" data-name="Path 868" d="M910.742,548.63s-9.167,8.158-12.664,7.647S910.742,548.63,910.742,548.63Z" transform="translate(-478.241 -346.29)" fill="#2481c5" opacity="0.1"/>
      <path id="Path_869" data-name="Path 869" d="M871.987,610s-7.126,1.909-7.228,4.8S871.987,610,871.987,610Z" transform="translate(-461.404 -377.769)" fill="#2481c5" opacity="0.1"/>
      <path id="Path_870" data-name="Path 870" d="M877.6,683.55s-10.077,2.284-7.155,3.463a49.3,49.3,0,0,0,7.71,2.036S881.428,689.093,877.6,683.55Z" transform="translate(-464.046 -415.496)" fill="#2481c5" opacity="0.05"/>
      <g id="Group_33" data-name="Group 33" transform="translate(392.415 176.959)" opacity="0.05">
        <path id="Path_871" data-name="Path 871" d="M865.641,693.487a2.021,2.021,0,0,1-.974-1.437c-.058.117-.1.185-.1.185s-.857,2.357.818,3.332c.195.112.375.219.545.326.3-.068.623-.122.935-.214C868.2,695.3,867.292,694.461,865.641,693.487Z" transform="translate(-853.61 -596.815)" fill="#2481c5"/>
        <path id="Path_872" data-name="Path 872" d="M893.272,690.723c.268-.268.234-.93.029-1.773a4.783,4.783,0,0,0-.487,2.513A2,2,0,0,1,893.272,690.723Z" transform="translate(-868.203 -595.225)" fill="#2481c5"/>
        <path id="Path_873" data-name="Path 873" d="M886.575,604.75a11.693,11.693,0,0,0-.565,3.2,12.424,12.424,0,0,1,.706-2.206S886.663,605.359,886.575,604.75Z" transform="translate(-864.721 -552.035)" fill="#2481c5"/>
        <path id="Path_874" data-name="Path 874" d="M934.416,592.635a3.828,3.828,0,0,0,.058-.945c-.1.648-.17,1.247-.214,1.773C934.309,593.2,934.357,592.917,934.416,592.635Z" transform="translate(-889.47 -545.336)" fill="#2481c5"/>
        <path id="Path_875" data-name="Path 875" d="M888.856,665.6a5.477,5.477,0,0,0,.18-1.919,6.48,6.48,0,0,0-.4,2.435A2.343,2.343,0,0,1,888.856,665.6Z" transform="translate(-866.067 -582.263)" fill="#2481c5"/>
        <path id="Path_876" data-name="Path 876" d="M879.268,700.8a33.882,33.882,0,0,0-.974,5.358l-10.365,1.607a21.817,21.817,0,0,1-2.5-4.3c-.131-.278-.239-.526-.326-.75-.614.312-.833.974.058,2.83a21.618,21.618,0,0,0,2.5,4.3l10.365-1.607s.565-5.455,1.559-6.527C880.072,701.161,879.736,700.9,879.268,700.8Z" transform="translate(-853.722 -601.303)" fill="#2481c5"/>
        <path id="Path_877" data-name="Path 877" d="M853.493,581.079s.317,5.942,1.188,6.254h0c.4-1,.653-1.948.263-2.08-.877-.312-1.188-6.254-1.188-6.254s-2-6.994-1.637-8.9-1.627-6.4-1.627-6.4l-.813-5.4a14.923,14.923,0,0,1-2.289-10.175l-.321-8.353s-3.034-16.073-3.692-24.266c-.424-5.231-.638-12.386-.735-16.847,0-.809-.029-1.524-.044-2.128l-.3.044s0,1.656.078,4.164c.1,4.461.312,11.616.731,16.847.662,8.168,3.7,24.265,3.7,24.265l.321,8.353a14.924,14.924,0,0,0,2.289,10.175l.809,5.4s1.987,4.491,1.627,6.4S853.493,581.079,853.493,581.079Z" transform="translate(-842.3 -496.52)" fill="#2481c5"/>
        <path id="Path_878" data-name="Path 878" d="M927.491,703.763a10.071,10.071,0,0,1-1.8-4.023c-1.028.974.336,4.676,1.539,6.1,1.266,1.505,10.258,2.109,11.87-.8l-.063-1.641C936.8,705.809,928.689,705.2,927.491,703.763Z" transform="translate(-884.887 -600.759)" fill="#2481c5"/>
        <path id="Path_879" data-name="Path 879" d="M954.716,686.928a16.707,16.707,0,0,0-1.106,2.63l.044,1.208c.18-.448.438-1.047.8-1.758a5.225,5.225,0,0,0,.292-2.148Z" transform="translate(-899.395 -594.153)" fill="#2481c5"/>
        <path id="Path_880" data-name="Path 880" d="M924.628,677.572a16.277,16.277,0,0,0,.77-2.08s-1.461.4-3.9-2.265c-1.768-1.948-2.012-5.723-1.865-8.207-.375,1.461-.828,7.622,1.6,10.287C922.84,677.05,924.009,677.479,924.628,677.572Z" transform="translate(-881.815 -582.95)" fill="#2481c5"/>
        <path id="Path_881" data-name="Path 881" d="M901.753,602.611a46.756,46.756,0,0,1,.37,5.095,6.275,6.275,0,0,1,.146-.8c.375-1.461-.248-6.371-.248-6.371s-.049-3.448-.779-4.544-2.435-7.408-2.435-7.408a5.064,5.064,0,0,0-1.335-3.224c-1.252-1.072-2.192-5.436-2.192-5.436a5.669,5.669,0,0,1-1-3.672c.175-2.163-1.637-4.418-1.637-4.418l-3.293-9.191-3.025-6.868-1.393,4.106v1.31l1.135-3.336,3.025,6.867,3.283,9.186s1.812,2.255,1.637,4.418a5.639,5.639,0,0,0,1,3.672s.94,4.384,2.192,5.436a5.013,5.013,0,0,1,1.33,3.224s1.71,6.332,2.435,7.408S901.753,602.611,901.753,602.611Z" transform="translate(-864.167 -526.912)" fill="#2481c5"/>
      </g>
      <path id="Path_882" data-name="Path 882" d="M912.633,317.844l-.526,3.171.093,1.4.068,1.033-3.58.487-.433-.731h0a30.184,30.184,0,0,0-2.961-4.384c-.682-.531-2.206-9.23-.765-8.767a3.774,3.774,0,0,1,2.075,1.734S913.7,312.331,912.633,317.844Z" transform="translate(-481.497 -223.905)" fill="#fff" stroke="#3397e1" stroke-width="1"/>
      <path id="Path_883" data-name="Path 883" d="M916.823,336.077l-3.58.487-.433-.731h0a3.176,3.176,0,0,1,3.945-.809Z" transform="translate(-486.052 -236.536)" opacity="0.1"/>
      <path id="Path_884" data-name="Path 884" d="M917.563,338.122l-4.7,1.281-.127-.7-.341-1.89a3.261,3.261,0,0,1,4.564-.8l.273.974Z" transform="translate(-485.842 -236.911)" fill="#2481c5"/>
      <path id="Path_885" data-name="Path 885" d="M752.567,317.153l-4.953,2.922s-.209-.39-.487-.935c-.521-.974-1.3-2.484-1.515-3.02-.331-.823-2.484-1.8-2.484-1.8-5.489-4.871.653-9.444.653-9.444,3.078-6.848,7.145,2.007,7.145,2.007s.7,4.72.346,5.056-.3,1.627-.3,1.627a19.13,19.13,0,0,1,1.33,2.849C752.474,316.86,752.567,317.153,752.567,317.153Z" transform="translate(-397.845 -219.925)" fill="#fff" stroke="#3397e1" stroke-width="1"/>
      <path id="Path_886" data-name="Path 886" d="M759.18,332.054l-4.953,2.922s-.209-.39-.487-.935c.687-.623,3.141-2.776,3.974-2.713a6.422,6.422,0,0,0,1.2,0C759.088,331.762,759.18,332.054,759.18,332.054Z" transform="translate(-404.459 -234.827)" opacity="0.1"/>
      <path id="Path_887" data-name="Path 887" d="M759.93,333.837l-5.577,3.02-.161-1.218-.112-.843s3.185-2.947,4.164-2.879a5.27,5.27,0,0,0,1.461-.058l.107,1.018Z" transform="translate(-404.633 -235.1)" fill="#2481c5"/>
      <path id="Path_888" data-name="Path 888" d="M873.4,349.974s-24.674,3.75-20.1,2.07c3.185-1.179,4.383-3.278,4.569-5.557a13.016,13.016,0,0,0-1.145-5.7,24.887,24.887,0,0,0-2.387-4.384s18.542-11.149,15.1-1.529a15.069,15.069,0,0,0-.9,4.53,12.663,12.663,0,0,0,.662,4.525A13.54,13.54,0,0,0,873.4,349.974Z" transform="translate(-455.234 -234.638)" fill="#fff" stroke="#3397e1" stroke-width="1"/>
      <path id="Path_889" data-name="Path 889" d="M871.138,334.885a15.071,15.071,0,0,0-.9,4.53c-1.724,1.568-3.687,1.544-6.2,1.641-1.948.073-4.052.623-5.63-.248a24.883,24.883,0,0,0-2.387-4.384S874.562,325.27,871.138,334.885Z" transform="translate(-456.922 -234.648)" opacity="0.1"/>
      <circle id="Ellipse_79" data-name="Ellipse 79" cx="10.258" cy="10.258" r="10.258" transform="translate(396.156 86.575)" fill="#fff" stroke="#3397e1" stroke-width="1"/>
      <path id="Path_890" data-name="Path 890" d="M873.4,362.64s-24.674,3.75-20.1,2.07c3.185-1.179,4.383-3.278,4.569-5.557,1.183-1.388,3.624-2.435,5.2-3.02a7.4,7.4,0,0,1,4.486-.243,6.248,6.248,0,0,1,1.666.692,13.541,13.541,0,0,0,4.184,6.059Z" transform="translate(-455.234 -247.304)" opacity="0.1"/>
      <path id="Path_891" data-name="Path 891" d="M917.922,339.654l-4.7,1.281-.127-.7a4.2,4.2,0,0,1,4.5-1.734Z" transform="translate(-486.201 -238.443)" opacity="0.1"/>
      <path id="Path_892" data-name="Path 892" d="M760.048,334.935l-5.577,3.02-.161-1.218A41.271,41.271,0,0,1,759.95,334Z" transform="translate(-404.751 -236.198)" opacity="0.1"/>
      <path id="Path_893" data-name="Path 893" d="M880.252,491.689c-9.537,1.885-23.121,4.384-25.327,3.8-1.822-.487-7.559-.2-12.552.166-.054-2.5-.073-4.164-.073-4.164l37.051-5.3A30.932,30.932,0,0,0,880.252,491.689Z" transform="translate(-449.885 -314.262)" opacity="0.1"/>
      <path id="Path_894" data-name="Path 894" d="M843.123,411.338s-31.4,6.639-34.83,5.738-20.8.886-20.8.886c-7.632,5.552-4.661-2.323-4.661-2.323a19.013,19.013,0,0,1,0-7.33,45.031,45.031,0,0,0,1.008-7.369s-.37-5.158.531-6.4,1.69-9.9,1.69-9.9.633-5.889.487-7.179a46.88,46.88,0,0,1,.073-4.914l.877-6.069c-6.493-.614-26.589-11.914-26.589-11.914-1.106-4.009-8.767-13.2-8.767-13.2a9.883,9.883,0,0,0-.692-2.3c-.57-1.359,7.077-4.413,7.077-4.413s6.04,6.819,7.306,8.689,5.548,5.221,5.548,5.221a4.14,4.14,0,0,1,1.9.17l.1.029h0a15.419,15.419,0,0,1,3.94,2.065,7.481,7.481,0,0,1,5.328,1.778s3.512-.653,4.135-.073,3.619-.136,3.619-.136,2.766-6.493,4.817-4.715,10.457,1.364,10.457,1.364c1.062-1.529,3.745-2.7,5.431-3.317a7.4,7.4,0,0,1,4.486-.248,5.757,5.757,0,0,1,1.807.789l5.289,4.8s1.393-1.948,1.2-2.377,1.7-.838,1.7-.838,2.465-.872,3.409-1.169,1.841.7,1.924.784a9.967,9.967,0,0,1-.575-3.77,4.446,4.446,0,0,0-1.154-3.059c2.732-7.52,9.77-1.583,9.77-1.583s.935,4.018.3,5.6.877,4.793.735,5.66.433,2.314.487,3.95a23.884,23.884,0,0,1-1.14,6.166c-.463,1.4-4.481,4.656-4.481,4.656S834.8,370,833.1,372.914s-.2,12.6-.2,12.6,2.016,7.51,4.262,9.839S843.123,411.338,843.123,411.338Z" transform="translate(-403.268 -236.531)" fill="#fff" stroke="#2481c5" stroke-width="1"/>
      <path id="Path_895" data-name="Path 895" d="M835.906,373.994s-1.057-2.805-1.948-3.03a20.661,20.661,0,0,1-2.538-1.023l.487-1.081s3.268.76,3.823,1.69S835.906,373.994,835.906,373.994Z" transform="translate(-444.304 -254.079)" fill="#2481c5" opacity="0.1"/>
      <path id="Path_896" data-name="Path 896" d="M796.393,365.66c-.141.867-7.793,1.948-7.793,1.948l3.726-4.038h0l.1.029h0a15.418,15.418,0,0,1,3.97,2.06Z" transform="translate(-422.34 -251.366)" fill="#2481c5" opacity="0.1"/>
      <circle id="Ellipse_80" data-name="Ellipse 80" cx="0.692" cy="0.692" r="0.692" transform="translate(350.732 102.634)" fill="#1fbc99"/>
      <circle id="Ellipse_81" data-name="Ellipse 81" cx="0.692" cy="0.692" r="0.692" transform="translate(351.668 103.978)" fill="#1fbc99"/>
      <circle id="Ellipse_82" data-name="Ellipse 82" cx="0.692" cy="0.692" r="0.692" transform="translate(352.578 105.215)" fill="#1fbc99"/>
      <circle id="Ellipse_83" data-name="Ellipse 83" cx="0.692" cy="0.692" r="0.692" transform="translate(353.533 106.559)" fill="#1fbc99"/>
      <circle id="Ellipse_84" data-name="Ellipse 84" cx="0.56" cy="0.56" r="0.56" transform="translate(434.838 103.491)" fill="#1fbc99"/>
      <circle id="Ellipse_85" data-name="Ellipse 85" cx="0.56" cy="0.56" r="0.56" transform="translate(434.975 104.757)" fill="#1fbc99"/>
      <circle id="Ellipse_86" data-name="Ellipse 86" cx="0.56" cy="0.56" r="0.56" transform="translate(435.096 106.024)" fill="#1fbc99"/>
      <path id="Path_897" data-name="Path 897" d="M842.56,427.31c-.083-.1,20.272,23.671,34.8,8.923C877.355,436.233,853.67,440.378,842.56,427.31Z" transform="translate(-450.018 -284.06)" fill="#2481c5" opacity="0.1"/>
      <path id="Path_898" data-name="Path 898" d="M820.67,454.359s11.631-.131,12.975,3.161l.132,3.478a2.216,2.216,0,0,1-2.163.083c-1.193-.585-8.353-3.9-10.764-2.07Z" transform="translate(-438.79 -297.935)" opacity="0.1"/>
      <path id="Path_899" data-name="Path 899" d="M821.12,454.339s11.12-.127,12.405,3.015l.127,3.317a2.133,2.133,0,0,1-2.07.078c-1.14-.56-7.988-3.7-10.292-1.973Z" transform="translate(-439.021 -297.924)" fill="#1fbc99"/>
      <path id="Path_900" data-name="Path 900" d="M831.7,402.07a37.364,37.364,0,0,0,4.8,7.554,30.308,30.308,0,0,0,7.306,6.536S831.953,403.658,831.7,402.07Z" transform="translate(-444.448 -271.114)" fill="#2481c5" opacity="0.1"/>
      <path id="Path_901" data-name="Path 901" d="M822.83,374.66s2.26,8.28,7.364,10.939Z" transform="translate(-439.898 -257.054)" fill="#2481c5" opacity="0.1"/>
      <path id="Path_902" data-name="Path 902" d="M816.669,376.627c-.058-.156-1.461,6.682,6.819,10.111C823.5,386.739,819.991,385.7,816.669,376.627Z" transform="translate(-436.674 -258.062)" fill="#2481c5" opacity="0.1"/>
      <path id="Path_903" data-name="Path 903" d="M920.487,361.086c-.127,0,4.13,2.489,5.3,3.677C925.791,364.764,922.937,360.818,920.487,361.086Z" transform="translate(-489.989 -250.085)" fill="#2481c5" opacity="0.1"/>
      <path id="Path_904" data-name="Path 904" d="M856.539,326.682a1.612,1.612,0,0,0,1.827,1.534c3.132.073,6.39.088,9.254-1.227a3.487,3.487,0,0,0,1.369-.974,5.83,5.83,0,0,0,.735-2.3,33.457,33.457,0,0,1,1.724-4.423,14.647,14.647,0,0,0,.692-7.856,5.23,5.23,0,0,0-.867-2.255c-.877-1.154-2.406-1.573-3.536-2.474s-1.895-2.314-3.2-2.971a5.854,5.854,0,0,0-3.9-.195,20.338,20.338,0,0,0-7.111,2.991,3.6,3.6,0,0,1-2.382.911,3.319,3.319,0,0,1-1.826-1.291,9.55,9.55,0,0,0-.594,4.5,1.948,1.948,0,0,1,0,.672,2.064,2.064,0,0,1-.453.726c-.736.925-1.164,2.362-.365,3.234.346.385.862.58,1.2.974.6.7.448,1.739.487,2.659a1.349,1.349,0,0,0,.263.9,1.33,1.33,0,0,0,1.276.253,3.445,3.445,0,0,1,1.339-.18,2.231,2.231,0,0,1,1.208.857A15.66,15.66,0,0,1,856.539,326.682Z" transform="translate(-452.541 -220.454)" fill="#3397e1" stroke="#2481c5" stroke-width="1"/>
      <g id="Group_34" data-name="Group 34" transform="translate(394.945 85.582)" opacity="0.1">
        <path id="Path_905" data-name="Path 905" d="M869.293,334.765a3.493,3.493,0,0,1-1.374.974c-2.844,1.315-6.1,1.305-9.23,1.227a1.612,1.612,0,0,1-1.831-1.529,15.922,15.922,0,0,0-2.845-5.962,2.24,2.24,0,0,0-1.2-.857,3.559,3.559,0,0,0-1.344.18,1.33,1.33,0,0,1-1.276-.253,1.379,1.379,0,0,1-.263-.9c0-.921.136-1.948-.487-2.659-.336-.39-.857-.585-1.2-.974a2.026,2.026,0,0,1-.278-2.051,2.363,2.363,0,0,0-.039,2.752c.346.38.867.575,1.2.974.6.7.453,1.739.487,2.664a1.344,1.344,0,0,0,.263.9,1.315,1.315,0,0,0,1.276.253,3.544,3.544,0,0,1,1.344-.18,2.265,2.265,0,0,1,1.2.857,16.032,16.032,0,0,1,2.844,5.962,2.168,2.168,0,0,0,.852,1.354,2.2,2.2,0,0,0,.974.18c3.132.073,6.39.083,9.254-1.232a3.531,3.531,0,0,0,1.374-.974,2.787,2.787,0,0,0,.409-.848,1.412,1.412,0,0,1-.112.146Z" transform="translate(-847.494 -315.604)"/>
        <path id="Path_906" data-name="Path 906" d="M850.046,313.907a1.459,1.459,0,0,0,.292-.531,1.838,1.838,0,0,0,0-.672,9.541,9.541,0,0,1,.341-3.726l-.063-.068a9.567,9.567,0,0,0-.594,4.5A2.884,2.884,0,0,1,850.046,313.907Z" transform="translate(-848.762 -308.91)"/>
      </g>
      <path id="Path_907" data-name="Path 907" d="M862.82,363.395s12.868,1.208,13.945-.765" transform="translate(-460.41 -250.884)" fill="#2481c5" opacity="0.1"/>
      <path id="Path_908" data-name="Path 908" d="M913.5,351.352s7.111-.263,8.767,2.343" transform="translate(-486.406 -245.095)" fill="#2481c5" opacity="0.1"/>
      <path id="Path_909" data-name="Path 909" d="M115.352,303.521V330.8c0,.813-1.525,1.461-3.409,1.461H39.989c-1.88,0-3.409-.658-3.409-1.461V303.521c0-.813,1.52-1.641,3.409-1.641h71.963C113.828,301.88,115.352,302.708,115.352,303.521Z" transform="translate(-36.6 -219.723)" fill="#fff"/>
      <g id="Group_35" data-name="Group 35" transform="translate(-0.02 82.158)" opacity="0.2">
        <path id="Path_910" data-name="Path 910" d="M115.352,303.521V330.8c0,.813-1.525,1.461-3.409,1.461H39.989c-1.88,0-3.409-.658-3.409-1.461V303.521c0-.813,1.52-1.641,3.409-1.641h71.963C113.828,301.88,115.352,302.708,115.352,303.521Z" transform="translate(-36.58 -301.88)" fill="#3397e1"/>
      </g>
      <rect id="Rectangle_116" data-name="Rectangle 116" width="37.484" height="1.325" transform="translate(34.556 91.899)" fill="#3397e1"/>
      <rect id="Rectangle_117" data-name="Rectangle 117" width="37.484" height="1.325" transform="translate(34.556 95.123)" fill="#3397e1" opacity="0.2"/>
      <rect id="Rectangle_118" data-name="Rectangle 118" width="37.484" height="1.325" transform="translate(34.556 98.347)" fill="#3397e1" opacity="0.2"/>
      <rect id="Rectangle_119" data-name="Rectangle 119" width="37.484" height="1.325" transform="translate(34.556 101.572)" fill="#3397e1" opacity="0.2"/>
      <path id="Path_912" data-name="Path 912" d="M194.7,406.327a29.466,29.466,0,0,1-.487-4.486c0-1.8-2.435-3.409-2.435-3.409s-1.515-3.507-2.508-4.018-4.125-5.1-4.125-5.1a4.159,4.159,0,0,0-.94-2.474,35.455,35.455,0,0,1-2.552-3.853h0c-.419-.516-.209-.877-.838-3.867q-.054-.234-.117-.453a.671.671,0,0,0-.063-.19,5.056,5.056,0,0,0,1.188-5.231,2.148,2.148,0,0,0-.6-.925c-.711-.58-1.846-.341-2.577-.891l.774-3.439c.19-.838.287-1.909-.453-2.362a3.711,3.711,0,0,0-.867-.292,4.008,4.008,0,0,1-2.318-3.034,10.4,10.4,0,0,1-.253-3.8c.141-1.218.487-2.406.633-3.629a10.019,10.019,0,0,0-1.544-6.458,5.037,5.037,0,0,0-2.041-1.924,18.5,18.5,0,0,1-2.435-.857c-1.568-.974-1.49-3.356-2.737-4.724s-3.463-1.354-5.285-.886-3.629,1.271-5.5,1.062c-1.2-.132-2.333-.677-3.536-.8a3.535,3.535,0,0,0-1.037.049l.024-.044a2.241,2.241,0,0,0-1.924,1.505,2.325,2.325,0,0,0-.058.614c0,.487.117,1,.127,1.461a1.422,1.422,0,0,1-.341,1.037c-.239.258-.594.395-.828.658a1.072,1.072,0,0,0-.307.774c0,.75.935,1.408,1.563,1.71h0c-.17.17-.336.346-.487.526a11.066,11.066,0,0,0-2.742,7.369,11.227,11.227,0,0,0,6.819,10.282c-.029.093-.054.18-.088.273a14.473,14.473,0,0,1-.614,1.593,3.156,3.156,0,0,0-2.645.292,6.791,6.791,0,0,1-4.179.619c-.628-.156-7.155-.974-7.676-.774s-1.568-.721-2.245.516-.974,1.909-1.671,2.216-1.88,1.291-1.724,1.5-1.724,1.461-1.724,1.461a8.317,8.317,0,0,1-2.557,1.909,14.235,14.235,0,0,0-2.922,1.5l-2.3,1.8s-1.724.258-1.2-.925-.94-2.684-.94-2.684-2.922-5.928-2.922-7.16-2.4-6.444-2.4-6.444l-.3-.029c-.044-.127-.088-.253-.136-.385a36.353,36.353,0,0,0-1.461-3.658c-.828-1.7-1.364-1.895-1.364-1.895s-10.131-7.608-16.711-5.289,12.011,9.225,13.682,9.951a3.151,3.151,0,0,1,1.3,2.016,8.655,8.655,0,0,0-3.58,3.258s4.018,8.913,4.121,11.129,2.771,8.4,2.771,8.4a5.852,5.852,0,0,0,6.371,4.33s7.413,1.359,9.03,0a12.8,12.8,0,0,1,3.867-2.586,3.044,3.044,0,0,0,1.461-1.033s-2.435,15.459-3.653,16.8-11.855,18.708-8.046,21.8a76.366,76.366,0,0,0,9.556,6.332c.326.161,1.3-1.461,2.684-2.606v.891c.024,6.176.828,15.586,1.973,17.69,1.671,3.093.974,9.074.974,9.074a7.208,7.208,0,0,0,2.825.677c.049.2.107.409.166.628.921,3.478,2.411,8.855,3.171,10.287,1.154,2.167,1.987,9.02,1.987,9.02s.677,6.751.419,7.681a44.858,44.858,0,0,0,1.033,6.712h0c-.424,4.832-1.218,14.149-1.354,17.534h0v.565h0a3.831,3.831,0,0,0,0,.633,1.982,1.982,0,0,1-.068.974,15.649,15.649,0,0,1-1.135,2.7,12.921,12.921,0,0,0-.487,1.31,2.36,2.36,0,0,0-1.218,1.729c-.521,2.012-1.305,7.579-1.305,7.579s-.312,3.409-.94,4.174-1.252,5.616,3.185,6.234a6.448,6.448,0,0,0,6.371-2.357l-.156-13.492h0a1.95,1.95,0,0,0,.229-.37v-.029c.029-.068.063-.131.093-.209s0-.063.039-.1.044-.107.063-.166a.274.274,0,0,1,0-.059,8.864,8.864,0,0,0,.375-4.018s0-.044,0-.068v-.209a.624.624,0,0,0,0-.093.943.943,0,0,1,0-.117v-.083a.883.883,0,0,1,.029-.273.179.179,0,0,1,0-.054v-.161a.377.377,0,0,0,0-.073,1.176,1.176,0,0,1,.034-.17v-.039c.039-.2.093-.4.146-.609v-.044l.058-.2h0c.068-.219.141-.433.214-.648v-.044l.073-.2v-.024c.073-.2.151-.4.229-.594v-.054l.073-.17v-.049l.161-.38h0l1.232,3.8s.677,2.835.312,3.5.419,3.458.94,3.507l-.487,3.507a53.617,53.617,0,0,0-.487,5.845c-.034.219-.068.409-.093.555a12.514,12.514,0,0,0,.487,4.578c4.125,4.871,9.035.38,9.035.38s.575-2.581,0-3.093-.312-2.372-.312-2.372.258-4.588.312-7.939-2.742-6.3-2.742-6.3l-.156.141a10.681,10.681,0,0,1-.974-3.531c.209-1.184-.575-13.706-.575-13.706a74.753,74.753,0,0,0,.18-10.073h0c.068-.57.132-1.13.195-1.671.317-2.693.57-5,.672-6.2h0v-.141c.024-.326.039-.555.034-.667,0-.4,0-.9.039-1.427.1-1.461.326-3.059.326-3.059l1.1-6.648A20.627,20.627,0,0,1,164,463.319l.141-.229h0c.049-.078.1-.166.146-.258v-.039l.146-.278v-.039c.17-.331.351-.716.536-1.135l.044-.092.141-.321.054-.127.141-.321c0-.044.034-.083.054-.127.054-.132.107-.263.166-.395l.078-.19c.044-.1.083-.195.122-.3l.107-.253.073-.19.117-.287c0-.044.039-.088.054-.132.3-.745.589-1.461.843-2.153h0c.083-.209.161-.409.234-.6,2.674.166,4.491.317,4.491.317a62.341,62.341,0,0,0,.575-10,36.844,36.844,0,0,1,.658-8c.039-.209.073-.395.1-.56l.073.058c1.31,1.028,2.245-2.372,2.245-2.372s-.351-3.181-.823-7.023a3.463,3.463,0,0,0-.049-.385,20.215,20.215,0,0,0,2.284.351s.419-.039.974-.112a27.679,27.679,0,0,0,4.958,2.221l2.766-5.153a21.012,21.012,0,0,1,1.826-3.039c.838-1.033,3.814-4.33,3.76-4.949a16.9,16.9,0,0,1,2.036-5.772A13.816,13.816,0,0,0,194.7,406.327Zm-11.592,3.9c-1.1.463-2.143,3.039-2.192,3.814s-1.2,4.174-2.406,4.588a16.133,16.133,0,0,0-3.551,2.63c-.346.034-.735.078-1.145.146a39.819,39.819,0,0,0-1.2-6.488c-.833-1.549.921-6.493.921-6.493s.175-5,1.271-6.186.838-4.174.838-4.174.258-1.237.365-1.8,1.554,0,1.563,0h0s2.82,1.544,3.239,3.862,3.5,6.332,3.5,6.332-.487,1.388,0,2.114-.1,1.213-1.193,1.675Z" transform="translate(-66.416 -239.139)" fill="url(#linear-gradient-3)"/>
      <path id="Path_913" data-name="Path 913" d="M121.15,389.8a8.421,8.421,0,0,1,8.436-3.96v6.02h-3.638l-2.883-.745Z" transform="translate(-79.979 -262.744)" fill="#fff"/>
      <path id="Path_914" data-name="Path 914" d="M121.15,389.8s-.5.437-.5.443a9.529,9.529,0,0,1,8.936-4.4v6.02h-3.638l-2.883-.745Z" transform="translate(-79.979 -263.744)" fill="none" stroke="#2481c5" stroke-width="1" opacity="0.996"/>
      <path id="Path_915" data-name="Path 915" d="M116.574,375.263,112.1,378.4s-.039-.633-.151-1.49c-.224-1.622-.726-4.057-1.807-4.53-1.646-.721-19.97-7.613-13.472-9.926s16.458,5.275,16.458,5.275.516.175,1.335,1.875c.433.891.974,2.411,1.432,3.648C116.287,374.376,116.574,375.263,116.574,375.263Z" transform="translate(-66.709 -250.57)" fill="#fff" stroke="#3397e1" stroke-width="1"/>
      <path id="Path_916" data-name="Path 916" d="M174.593,265.684l.507-.244,1.432,1.632-1.169,2.494-1.992-.8.463-1.992Z" transform="translate(-88.938 -136.154)" fill="#4c4981"/>
      <path id="Path_917" data-name="Path 917" d="M193.876,699.067s-1.286-.151-1.8,1.851-1.286,7.564-1.286,7.564-.307,3.409-.925,4.164-1.232,5.606,3.137,6.225a6.326,6.326,0,0,0,6.278-2.353l-.156-13.492Z" transform="translate(-115.002 -423.454)" fill="#1fbc99"/>
      <path id="Path_918" data-name="Path 918" d="M222.758,700.32s2.752,2.922,2.7,6.283-.312,7.924-.312,7.924-.253,1.851.312,2.367,0,3.083,0,3.083-4.837,4.491-8.9-.375a13.2,13.2,0,0,1-.487-4.574c.307-1.792,1.232-9.863,1.232-9.863Z" transform="translate(-128.634 -424.098)" fill="#1fbc99"/>
      <path id="Path_919" data-name="Path 919" d="M217.078,571.01s-2.781,7.793-3.965,9.566a20.28,20.28,0,0,0-2,5.046l-1.081,6.639a36.409,36.409,0,0,0-.36,4.476c.049,1.49-2.674,23.247-2.674,23.247l-4.32,5.5s-1.9,3.857-1.6,5.455a8.072,8.072,0,0,1-.823,4.934s-.1,5.041-.258,6.176.57,4.32,0,4.871-8.124.307-8.334-.619.93-5.4.93-5.4l.667-4.32s1.335-2.367,1.028-3.137.565-2.572.619-2.727,1.461-2.674,1.184-3.648,1.593-21.708,1.593-21.708l5.3-37.192Z" transform="translate(-116.135 -356.313)" fill="#ae6e79"/>
      <path id="Path_920" data-name="Path 920" d="M217.083,571.02s-.419,1.169-1,2.708a51.613,51.613,0,0,1-2.961,6.858,20.821,20.821,0,0,0-2.007,5.041l-1.076,6.639a36.394,36.394,0,0,0-.36,4.471c0,.589-.395,4.349-.9,8.675-.779,6.619-1.773,14.578-1.773,14.578l-4.325,5.5s-.219.443-.487,1.086c-.541,1.261-1.305,3.312-1.1,4.383a8.088,8.088,0,0,1-.823,4.939s-.1,5.046-.258,6.171.57,4.325,0,4.871-8.124.312-8.334-.619.925-5.4.925-5.4l.672-4.325s1.335-2.367,1.028-3.137.565-2.572.619-2.728,1.461-2.674,1.184-3.653c-.2-.745.828-12.927,1.325-18.7.161-1.822.268-3,.268-3l4.559-31.995.365-2.581.375-2.616Z" transform="translate(-116.14 -356.323)" fill="#fff" stroke="#3397e1" stroke-width="1"/>
      <path id="Path_921" data-name="Path 921" d="M210.878,651.09c.049.565-7.252,1.388-8.28.77s0-8.28,0-8.28l.487-3.5c-.516-.054-1.286-2.83-.925-3.5s-.312-3.5-.312-3.5l-1.213-3.8-.74-2.318c-1.2-2.655-2.922-10.228-4.023-15.878a45.492,45.492,0,0,1-1.018-6.707c.258-.925-.414-7.661-.414-7.661s-.818-6.819-1.948-9c-.75-1.432-2.216-6.819-3.127-10.272-.463-1.778-.784-3.054-.784-3.054s7.793-.653,12.488-.882c2.172-.1,3.692-.117,3.512.063a6.348,6.348,0,0,0-.209,2.479c0,3.531.511,9.741,1.033,11.407.721,2.314,1.461,9.254,1.13,9.926s-.2,5.143-.2,5.143a23.1,23.1,0,0,1,.9,5.587,75.394,75.394,0,0,1-.18,10.053s.774,12.5.565,13.682,1.646,4.871,1.646,5.606.468,5.606.468,5.606S210.829,650.525,210.878,651.09Z" transform="translate(-114.567 -359.014)" fill="#fff" stroke="#3397e1" stroke-width="1"/>
      <path id="Path_922" data-name="Path 922" d="M222.388,401.422l-.886.974-.575.619-3.37,3.58-8.694.974-4.617-1.237-1.145-.3s0-2.323.209-5.109c.292-3.57,1-7.91,2.674-9.089a6.644,6.644,0,0,0,1.948-2.479,13.877,13.877,0,0,0,.843-2.08c.034-.093.058-.18.088-.268a22.792,22.792,0,0,0,.818-3.819s1.11-.614,2.65-1.33c4.028-1.88,10.983-4.471,8.563,1.33a21.868,21.868,0,0,0-.906,2.611c-.039.127-.073.258-.1.385-.809,3.234-.273,5.192.331,6.273h0a4.379,4.379,0,0,0,.351.531,2.678,2.678,0,0,0,.584.594l1,6.356.083.526Z" transform="translate(-122.015 -259.6)" fill="#fff" stroke="#3397e1" stroke-width="1"/>
      <path id="Path_923" data-name="Path 923" d="M226.878,383.873c-.458,1.1.224-.9,0,0-1.831,1.305-6.152,5.017-8.582,5.017a6.77,6.77,0,0,1-3.536-.93,22.842,22.842,0,0,0,.906-4.086S230.219,375.846,226.878,383.873Z" transform="translate(-127.995 -259.95)" opacity="0.1"/>
      <path id="Path_924" data-name="Path 924" d="M223.625,361.963a11.2,11.2,0,0,1-10.038,11.149,10.4,10.4,0,0,1-1.174.063,11.2,11.2,0,1,1,11.2-11.2Z" transform="translate(-121.045 -244.8)" fill="#fff" stroke="#3397e1" stroke-width="1"/>
      <path id="Path_925" data-name="Path 925" d="M221.288,446.573l-1.593,4.169s-1.305.058-3.332.122c-6.819.219-21.918.487-22.595-1.257a4.223,4.223,0,0,1-.234-1.383,26.966,26.966,0,0,1,1.159-6.795s.721-8.231.721-8.587-.619-6.147-.619-6.147l1.232-4.627,3.448-2.435s1.544,2.367,2.469,2.572a6.471,6.471,0,0,1,2.163,1.339s3.03,1.851,4.009.818,8.592-5.552,8.592-5.552l4.013,4.423Z" transform="translate(-117.106 -279.7)" opacity="0.1"/>
      <path id="Path_926" data-name="Path 926" d="M221.288,447.843l-1.593,4.169s-1.305.058-3.331.117h-.2l-2.956.078c-5.436.122-12.931.156-16.843-.414-1.461-.214-2.435-.487-2.6-.925a3.409,3.409,0,0,1-.185-.765,6.122,6.122,0,0,1-.049-.619,27.246,27.246,0,0,1,1.159-6.819s.721-8.231.721-8.592-.619-6.122-.619-6.122l1.232-4.627,2.372-1.661,1.076-.755a15.551,15.551,0,0,0,1.184,1.554,3.1,3.1,0,0,0,1.286,1.013,6.553,6.553,0,0,1,2.163,1.339s3.03,1.856,4.009.823a76.145,76.145,0,0,1,7.51-4.91l1.081-.648.541.6,3.473,3.828Z" transform="translate(-117.106 -280.352)" fill="#fff" stroke="#3397e1" stroke-width="1"/>
      <path id="Path_927" data-name="Path 927" d="M134.127,387.1l-4.476,3.142s-.039-.633-.151-1.49a9.057,9.057,0,0,0,3.945-3.658C133.84,386.21,134.127,387.1,134.127,387.1Z" transform="translate(-84.262 -262.404)" opacity="0.1"/>
      <path id="Path_928" data-name="Path 928" d="M145.581,398.18l-.974-.253a8.181,8.181,0,0,1-2.523,1.9,13.72,13.72,0,0,0-2.879,1.5l-2.265,1.8s-1.7.258-1.184-.925-.925-2.674-.925-2.674-2.879-5.918-2.879-7.15-2.367-6.429-2.367-6.429-2.986,5.811-8.436,3.96c0,0,3.96,8.9,4.062,11.11s2.728,8.387,2.728,8.387a5.8,5.8,0,0,0,6.273,4.32s7.306,1.359,8.9,0,3.034-2.435,3.809-2.581a3.015,3.015,0,0,0,1.437-1.028v-6.118Z" transform="translate(-79.979 -262.84)" fill="#fff" stroke="#2481c5" stroke-width="1"/>
      <path id="Path_929" data-name="Path 929" d="M152.51,423s1.286,4.783.487,5.3Z" transform="translate(-96.065 -281.85)" fill="#2481c5" opacity="0.1"/>
      <path id="Path_930" data-name="Path 930" d="M216.369,483.105c-6.819.219-21.918.487-22.595-1.252a4.223,4.223,0,0,1-.234-1.383l22.351,1.179Z" transform="translate(-117.111 -311.328)" opacity="0.1"/>
      <path id="Path_931" data-name="Path 931" d="M215.463,571.02s-.419,1.169-1,2.708c-2.84-.175-6.6-.356-10.17-.38-1.266,0-2.5,0-3.668.039a27.47,27.47,0,0,0-6,.667,15.822,15.822,0,0,1-5.358.687c-.463-1.778-.784-3.054-.784-3.054s7.793-.653,12.488-.882l.375-2.616Z" transform="translate(-114.52 -356.323)" opacity="0.1"/>
      <path id="Path_932" data-name="Path 932" d="M216.149,507.8l-.872,1.851s-.122.55-.278,1.427a37.348,37.348,0,0,0-.653,7.988,62.522,62.522,0,0,1-.565,9.975s-18.927-1.593-24.48,0-8.28,0-8.28,0,.667-5.966-.974-9.05c-1.13-2.114-1.919-11.495-1.948-17.656,0-2.849.141-5.007.487-5.44,1.13-1.393,5.966-15.279,5.966-15.279l1.1.058,2.922.156,16.75.882,2.625.136.278.852Z" transform="translate(-109.191 -311.918)" fill="#fff" stroke="#1fbc99" stroke-width="1"/>
      <path id="Path_933" data-name="Path 933" d="M265.19,515.006l.156,1.646s-8.28-2.7-7.871-6.015,0-2.922,0-2.922l6.663.565Z" transform="translate(-149.898 -325.296)" fill="#4c4981"/>
      <path id="Path_934" data-name="Path 934" d="M265.19,515.006l.156,1.646s-8.28-2.7-7.871-6.015,0-2.922,0-2.922l6.663.565Z" transform="translate(-149.898 -325.296)" opacity="0.1"/>
      <path id="Path_935" data-name="Path 935" d="M162.526,424.34a7.388,7.388,0,0,0,2.922,1.52,1.9,1.9,0,0,1-.862-.4c-.594-.424-1.159-.882-1.729-1.33a5.079,5.079,0,0,0-1.607-1.106,8.871,8.871,0,0,0,1.276,1.32Z" transform="translate(-100.548 -281.86)" fill="#2481c5" opacity="0.1"/>
      <path id="Path_936" data-name="Path 936" d="M161.707,428.018a3.581,3.581,0,0,1,.638,1.018,4.091,4.091,0,0,1,.185,1.315,4.15,4.15,0,0,1-.229,1.865l-1.349-3.2c-.229-.545-.487-1.091-.74-1.617-.122-.224-.886-1.149-.8-1.344C159.666,425.495,161.458,427.711,161.707,428.018Z" transform="translate(-99.602 -283.37)" fill="#2481c5" opacity="0.1"/>
      <path id="Path_937" data-name="Path 937" d="M234.679,465.435a4.306,4.306,0,0,0,2.435-1.125c-1.369.171-2.659.706-4.008.974a5.957,5.957,0,0,1-3.736-.341A8.983,8.983,0,0,0,234.679,465.435Z" transform="translate(-135.489 -303.039)" fill="#2481c5" opacity="0.1"/>
      <path id="Path_938" data-name="Path 938" d="M225.277,443a.92.92,0,0,1-.7-.175q-1.539-.877-3.039-1.841a18.435,18.435,0,0,1-2.971-2.055C220.611,440.776,222.51,442.335,225.277,443Z" transform="translate(-129.95 -290.021)" fill="#2481c5" opacity="0.1"/>
      <path id="Path_939" data-name="Path 939" d="M235.251,468.622a6.534,6.534,0,0,0,1.6-.127,2.168,2.168,0,0,0,1.32-.867.745.745,0,0,0-.56.088,9.459,9.459,0,0,1-5.163.619A7.513,7.513,0,0,0,235.251,468.622Z" transform="translate(-137.069 -304.731)" fill="#2481c5" opacity="0.1"/>
      <path id="Path_940" data-name="Path 940" d="M204.381,518.269a16.509,16.509,0,0,1-3.288.648,20.169,20.169,0,0,1-2.6-.049l-4.213-.268-2.109-.136c-.248,0-1.266,0-.765-.487.253-.239,1.661-.088,2.021-.1.7,0,1.4-.034,2.094-.039,1.393,0,2.791,0,4.184.088Q202.053,518.02,204.381,518.269Z" transform="translate(-115.946 -330.497)" fill="#2481c5" opacity="0.1"/>
      <path id="Path_941" data-name="Path 941" d="M198.029,522.595a17.693,17.693,0,0,0-2.372.487,15.607,15.607,0,0,1-2.479.1,13.949,13.949,0,0,1-4.788-.974C191.61,522.371,194.819,522.468,198.029,522.595Z" transform="translate(-114.469 -332.738)" fill="#2481c5" opacity="0.1"/>
      <path id="Path_942" data-name="Path 942" d="M188.121,527.392a7.556,7.556,0,0,1,.921.248,10.635,10.635,0,0,0,5.45-.38,3.227,3.227,0,0,1-2.07,1.149,9.741,9.741,0,0,1-4.038.146c-.424-.083-1.461-.234-1.695-.672C186.367,527.236,187.726,527.328,188.121,527.392Z" transform="translate(-113.572 -335.329)" fill="#2481c5" opacity="0.1"/>
      <path id="Path_943" data-name="Path 943" d="M207.345,533.353a14.931,14.931,0,0,1,1.573.409c2,.487,4.072-.185,6.079-.643a28.118,28.118,0,0,1,7.36-.682,7.218,7.218,0,0,0-1.578.521c-.57.17-1.145.326-1.719.487a34.6,34.6,0,0,1-3.439.672,35.223,35.223,0,0,1-7.053.307c-1.076-.058-2.922.054-3.867-.487a4.276,4.276,0,0,1,2.645-.584Z" transform="translate(-122.835 -337.973)" fill="#2481c5" opacity="0.1"/>
      <path id="Path_944" data-name="Path 944" d="M194.471,401.525s.1,4.739-.672,6.9c-.239.672-.619,1.914-1.028,3.307-.453,1.544-.945,3.273-1.325,4.612s-.628,2.265-.628,2.265-1.739,14.154-2.192,20.895v.351c-.024.38-.068.774-.127,1.184-1,6.7-6.78,17.023-8.718,17.851a5.845,5.845,0,0,0-1.632,1.12c0-2.849.141-5.007.487-5.44,1.13-1.393,5.967-15.279,5.967-15.279l1.1.058a6.124,6.124,0,0,1-.049-.619,27.247,27.247,0,0,1,1.159-6.819s.721-8.231.721-8.592-.619-6.122-.619-6.122l1.232-4.627,2.372-1.661c.292-3.57,1-7.91,2.674-9.089a6.643,6.643,0,0,0,1.948-2.479c.336.044-.273-.248-.273-.248Z" transform="translate(-109.217 -269.585)" opacity="0.1"/>
      <path id="Path_945" data-name="Path 945" d="M181.807,398.469a3.078,3.078,0,0,0-2.606.3,6.623,6.623,0,0,1-4.116.614c-.619-.156-7.048-.974-7.559-.77s-1.544-.721-2.211.511-.974,1.9-1.646,2.216-1.856,1.286-1.7,1.49-1.695,1.461-1.695,1.461l3.75,12.177s-2.435,15.43-3.6,16.765-11.689,18.674-7.92,21.762a75.957,75.957,0,0,0,9.41,6.332c.414.2,1.9-2.572,3.965-3.448s8.436-12.474,8.855-19.039,2.211-21.246,2.211-21.246,2.211-8.027,2.986-10.185.648-6.9.648-6.9Z" transform="translate(-95.646 -269.183)" fill="#fff" stroke="#2481c5" stroke-width="1"/>
      <path id="Path_946" data-name="Path 946" d="M244.678,469.349l-.872,1.851s-.122.55-.278,1.427a.808.808,0,0,1-.443-.19c-1.286-1.033-8.85-8.8-9.205-15.693-.268-5.085-.141-9.464-.058-11.417.029-.614.049-.974.054-1.067,0,0,5.845-7.1,5.192-9.619s-2.211-16-2.211-16l-.229-1.768-.39-2.986-.921-7.238.974.224a2.679,2.679,0,0,0,.584.594l1,6.356,3.473,3.828.565,23.3-1.593,4.169s-1.305.058-3.332.117h-.2Z" transform="translate(-137.719 -273.463)" opacity="0.1"/>
      <path id="Path_947" data-name="Path 947" d="M248.569,430.538s-1.461-.565-1.544,0-.36,1.8-.36,1.8.253,2.986-.823,4.169-1.252,6.171-1.252,6.171-1.729,4.939-.911,6.483a41.989,41.989,0,0,1,1.223,6.731c.292,2.1.584,4.413.847,6.522.487,3.843.813,7.014.813,7.014s-.925,3.409-2.211,2.367-8.85-8.806-9.21-15.688c-.253-4.846-.151-9.05-.068-11.124.039-.882.068-1.378.068-1.378s5.845-7.1,5.2-9.615-2.211-16-2.211-16l-.273-2.08-.287-2.241-.063-.487-.93-7.179h0c.166.034,5.937,1.339,6.7,2.1s5.45,1.851,5.45,1.851a4.125,4.125,0,0,1,2.922,3c.044.141.078.292.112.448.619,2.986.414,3.341.828,3.858S248.569,430.538,248.569,430.538Z" transform="translate(-138.367 -273.13)" fill="#fff" stroke="#2481c5" stroke-width="1"/>
      <path id="Path_948" data-name="Path 948" d="M251.657,514.952c-2.114-.409-5.226-1.388-5.158-3.531.068-2.012,2.484-2.732,4.31-2.991C251.126,510.529,251.394,512.843,251.657,514.952Z" transform="translate(-144.275 -325.67)" opacity="0.1"/>
      <path id="Path_949" data-name="Path 949" d="M258.522,513.428c-.083.18-.434.336-.9.487a23.5,23.5,0,0,1-3.409.555s-7.15-.565-7.048-3.8c.073-2.328,3.3-2.922,5.119-3.083.711-.063,1.208-.054,1.208-.054S258.834,512.761,258.522,513.428Z" transform="translate(-144.619 -325.208)" fill="#fff" stroke="#3397e1" stroke-width="1"/>
      <path id="Path_950" data-name="Path 950" d="M263.494,513.428c-.083.18-.434.336-.9.487-1.865-2.494-4.466-5.694-5.738-5.976,0,0,.146-.141.385-.356.711-.063,1.208-.054,1.208-.054S263.806,512.761,263.494,513.428Z" transform="translate(-149.59 -325.208)" opacity="0.1"/>
      <path id="Path_951" data-name="Path 951" d="M262.03,428.5l2.109.307a36.262,36.262,0,0,0,2.523,3.858,4.193,4.193,0,0,1,.925,2.469s3.088,4.578,4.062,5.095,2.469,4.013,2.469,4.013,2.435,1.593,2.435,3.409a29.706,29.706,0,0,0,.463,4.471,12.741,12.741,0,0,1-1.393,5.041,17.266,17.266,0,0,0-2,5.762c.054.619-2.883,3.9-3.707,4.939a20.786,20.786,0,0,0-1.8,3.034l-2.728,5.143s-5.762-8.485-7.871-8.947a16.483,16.483,0,0,1,3.551-2.674c1.184-.409,2.314-3.809,2.367-4.578s1.076-3.346,2.158-3.809,1.646-.925,1.184-1.646,0-2.109,0-2.109-3.034-4.013-3.448-6.332-3.185-3.858-3.185-3.858l-1.6-3.9Z" transform="translate(-149.929 -284.671)" fill="#fff" stroke="#2481c5" stroke-width="1"/>
      <path id="Path_952" data-name="Path 952" d="M280.453,466.263a6.668,6.668,0,0,1,4.155-1.573,5.068,5.068,0,0,0-2.718,1.062,6.212,6.212,0,0,0-.75.974c-.248.351-2.231,2.874-2.547,2.479C278.12,468.6,280.053,466.6,280.453,466.263Z" transform="translate(-160.7 -303.234)" fill="#2481c5" opacity="0.1"/>
      <path id="Path_953" data-name="Path 953" d="M272.93,454.282a1.773,1.773,0,0,0,1.461-1.037,5.844,5.844,0,0,0,.458-1.826,27.07,27.07,0,0,1,.638-3.122,1.988,1.988,0,0,0,.1-.653,1.846,1.846,0,0,0-.19-.628,4.483,4.483,0,0,0-.448-.935,5.712,5.712,0,0,0-.648,1.948q-.282,1.052-.541,2.1C273.68,450.5,272.964,454.282,272.93,454.282Z" transform="translate(-157.833 -293.688)" fill="#2481c5" opacity="0.1"/>
      <path id="Path_954" data-name="Path 954" d="M237.2,384.733a4.589,4.589,0,0,1-.711.731c-.823.667-1.948,1.232-2.065,2.284a2.518,2.518,0,0,1-.122,1.018c-.268.458-.93.424-1.461.331a2.572,2.572,0,0,1-1.232-.453c-.55-.487-.6-1.315-1.023-1.9a2.6,2.6,0,0,0-2.085-.935c-.789-.024-1.573.151-2.357.19a6.531,6.531,0,0,1-1.51-.1c-.166-.029-.326-.063-.487-.1a6.391,6.391,0,0,1-1.028-.351,5.184,5.184,0,0,1-.487-.234,6.619,6.619,0,0,1-1.461-1.008,3.61,3.61,0,0,1-1.344-2.732,16.789,16.789,0,0,1,.438-1.87c.317-1.817-.891-3.536-2.2-4.836-.521-.511-1.076-1.018-1.6-1.544a7.705,7.705,0,0,1-1.885-2.679,8.164,8.164,0,0,1-.336-3.351,22.786,22.786,0,0,0,.1-3.453c-.39-4.091-3.9-7.223-7.374-8.933l-.151-.078a11.2,11.2,0,1,1,15.1,16.4c-.039.127-.073.258-.1.385-.809,3.234-.273,5.192.331,6.273h0c.166.034,5.937,1.339,6.7,2.1s5.45,1.851,5.45,1.851a4.125,4.125,0,0,1,2.9,3Z" transform="translate(-123.923 -244.903)" opacity="0.1"/>
      <path id="Path_955" data-name="Path 955" d="M204.909,346.374c.229-.263.58-.4.813-.658.726-.789,0-2.08.268-3.122.287-1.159,1.7-1.666,2.893-1.539s2.3.667,3.482.8c1.841.209,3.624-.589,5.421-1.057s3.965-.487,5.207.882,1.149,3.721,2.689,4.72a19.909,19.909,0,0,0,2.377.852,4.929,4.929,0,0,1,2.012,1.924,10.077,10.077,0,0,1,1.515,6.444c-.127,1.218-.487,2.406-.623,3.624a10.569,10.569,0,0,0,.248,3.789,4.007,4.007,0,0,0,2.289,3.03,3.6,3.6,0,0,1,.852.292c.726.448.633,1.52.448,2.352l-.779,3.434c.721.55,1.836.312,2.538.891a2.06,2.06,0,0,1,.589.925,5.06,5.06,0,0,1-1.51,5.523c-.823.672-1.948,1.232-2.065,2.289a2.435,2.435,0,0,1-.122,1.013c-.268.458-.93.424-1.461.331a2.523,2.523,0,0,1-1.227-.453c-.555-.487-.6-1.315-1.023-1.9a2.6,2.6,0,0,0-2.085-.935c-.794-.024-1.573.151-2.362.19a6.95,6.95,0,0,1-4.973-1.8,3.6,3.6,0,0,1-1.349-2.728,18.018,18.018,0,0,1,.438-1.875c.317-1.812-.891-3.536-2.2-4.832s-2.844-2.5-3.482-4.228c-.8-2.143,0-4.53-.239-6.819-.39-4.091-3.9-7.223-7.369-8.928C205.328,348.42,204,347.4,204.909,346.374Z" transform="translate(-122.786 -239.537)" fill="#3397e1" stroke="#2481c5" stroke-width="1"/>
      <path id="Path_956" data-name="Path 956" d="M232.414,382.291c-.55-.487-.6-1.31-1.018-1.9a2.621,2.621,0,0,0-2.09-.93c-.789-.024-1.568.151-2.357.19a6.974,6.974,0,0,1-4.973-1.773,3.623,3.623,0,0,1-1.349-2.732,17.944,17.944,0,0,1,.438-1.87c.317-1.817-.891-3.536-2.2-4.837s-2.84-2.5-3.482-4.228c-.794-2.138,0-4.53-.234-6.819-.39-4.091-3.9-7.228-7.374-8.933-.813-.4-2.138-1.412-1.232-2.435.229-.263.575-.395.813-.653.726-.789,0-2.085.268-3.127a1.651,1.651,0,0,1,.263-.57,2.226,2.226,0,0,0-1.895,1.5c-.258,1.042.458,2.338-.268,3.127-.234.258-.584.39-.813.653-.906,1.033.419,2.046,1.237,2.435,3.492,1.71,6.98,4.841,7.369,8.933.214,2.27-.56,4.661.239,6.819.638,1.729,2.172,2.922,3.482,4.228s2.513,3.02,2.2,4.837a18.224,18.224,0,0,0-.438,1.87,3.623,3.623,0,0,0,1.349,2.732,6.95,6.95,0,0,0,4.973,1.8c.789-.039,1.568-.214,2.362-.19a2.611,2.611,0,0,1,2.085.93c.419.594.487,1.437,1.023,1.9a2.523,2.523,0,0,0,1.227.453c.526.1,1.188.131,1.461-.331a1.149,1.149,0,0,0,.117-.6,2.367,2.367,0,0,1-1.179-.468Z" transform="translate(-122.786 -240.132)" opacity="0.1"/>
      <circle id="Ellipse_93" data-name="Ellipse 93" cx="8" cy="8" r="8" transform="translate(267.98 193.41)" fill="#1fbc99"/>
      <circle id="Ellipse_96" data-name="Ellipse 96" cx="8" cy="8" r="8" transform="translate(157.98 151.41)" fill="#2481c5"/>
      <circle id="Ellipse_99" data-name="Ellipse 99" cx="8" cy="8" r="8" transform="translate(153.98 247.41)" fill="#2481c5"/>
      <circle id="Ellipse_97" data-name="Ellipse 97" cx="8" cy="8" r="8" transform="translate(244.98 97.41)" fill="#3397e1"/>
      <circle id="Ellipse_94" data-name="Ellipse 94" cx="8" cy="8" r="8" transform="translate(142.98 65.41)" fill="#1fbc99"/>
      <circle id="Ellipse_98" data-name="Ellipse 98" cx="8" cy="8" r="8" transform="translate(5.98 89.41)" fill="#3397e1"/>
      <circle id="Ellipse_95" data-name="Ellipse 95" cx="8" cy="8" r="8" transform="translate(356.98 71.41)" fill="#1fbc99"/>
      <path id="Path_802" data-name="Path 802" d="M1099.04,293.182s15.4-14.8,19.327-14.782c0,0-12.7.58-19.7,14Z" transform="translate(-581.387 -207.679)" fill="#2481c5"/>
    </g>
  </g>
</svg>
