<svg xmlns="http://www.w3.org/2000/svg" xmlns:xlink="http://www.w3.org/1999/xlink" width="546.5" height="425.608" viewBox="0 0 546.5 425.608">
  <defs>
    <filter id="Rectangle_48" x="424.02" y="262.769" width="122.48" height="117.893" filterUnits="userSpaceOnUse">
      <feOffset dy="3" input="SourceAlpha"/>
      <feGaussianBlur stdDeviation="3" result="blur"/>
      <feFlood flood-opacity="0.161"/>
      <feComposite operator="in" in2="blur"/>
      <feComposite in="SourceGraphic"/>
    </filter>
    <filter id="Path_723" x="312.93" y="0" width="123.48" height="118.893" filterUnits="userSpaceOnUse">
      <feOffset dy="3" input="SourceAlpha"/>
      <feGaussianBlur stdDeviation="3" result="blur-2"/>
      <feFlood flood-opacity="0.161"/>
      <feComposite operator="in" in2="blur-2"/>
      <feComposite in="SourceGraphic"/>
    </filter>
    <filter id="Path_724" x="21.314" y="141.957" width="122.48" height="117.893" filterUnits="userSpaceOnUse">
      <feOffset dy="3" input="SourceAlpha"/>
      <feGaussianBlur stdDeviation="3" result="blur-3"/>
      <feFlood flood-opacity="0.161"/>
      <feComposite operator="in" in2="blur-3"/>
      <feComposite in="SourceGraphic"/>
    </filter>
  </defs>
  <g id="vector3" transform="translate(746 -4709.5)">
    <g id="Group_17" data-name="Group 17" transform="translate(-746 4716.5)">
      <rect id="Rectangle_45" data-name="Rectangle 45" width="49.956" height="406.274" rx="24.978" transform="matrix(0.926, -0.379, 0.379, 0.926, 80.153, 32.476)" fill="#2481c5" opacity="0.369"/>
      <rect id="Rectangle_46" data-name="Rectangle 46" width="49.956" height="389.091" rx="24.978" transform="matrix(0.926, -0.379, 0.379, 0.926, 0, 42.773)" fill="#3397e1" opacity="0.369"/>
      <rect id="Rectangle_47" data-name="Rectangle 47" width="49.956" height="406.274" rx="24.978" transform="matrix(0.926, -0.379, 0.379, 0.926, 169.871, 20.752)" fill="#1fbc99" opacity="0.369"/>
      <path id="Path_707" data-name="Path 707" d="M637.607,404.095l-1.114-.34L220.917,276.994l1.143-.571L507.345,133.961l.225.465ZM223.659,276.765,635.677,402.44l-128.8-267.1Z" transform="translate(-145.941 -85.712)" fill="#2481c5"/>
      <g transform="matrix(1, 0, 0, 1, 0, -7)" filter="url(#Rectangle_48)">
        <rect id="Rectangle_48-2" data-name="Rectangle 48" width="103.48" height="98.892" transform="translate(433.52 269.27)" fill="#fff" stroke="#1fbc99" stroke-width="1"/>
      </g>
      <g transform="matrix(1, 0, 0, 1, 0, -7)" filter="url(#Path_723)">
        <path id="Path_723-2" data-name="Path 723" d="M0,0H103.48V98.892H0Z" transform="translate(322.93 7)" fill="#fff" stroke="#1fbc99" stroke-width="2"/>
      </g>
      <g transform="matrix(1, 0, 0, 1, 0, -7)" filter="url(#Path_724)">
        <path id="Path_724-2" data-name="Path 724" d="M0,0H103.48V98.892H0Z" transform="translate(30.81 148.46)" fill="#fff" stroke="#3397e1" stroke-width="1"/>
      </g>
      <path id="Path_708" data-name="Path 708" d="M506.336,287.309h-3.059l-13,47.152s-.255,31.35,2.8,46.643c0,0,5.1-6.627,8.666-6.627s6.882-33.389,6.882-33.389S522.648,293.426,506.336,287.309Z" transform="translate(-277.992 -160.89)" fill="#fff" stroke="#3397e1" stroke-width="1"/>
      <path id="Path_709" data-name="Path 709" d="M650.147,464.309s-8.156,22.939-.51,24.468,11.724-17.841,9.685-20.39S650.147,464.309,650.147,464.309Z" transform="translate(-354.516 -247.663)" fill="#fff" stroke="#3397e1" stroke-width="1"/>
      <path id="Path_710" data-name="Path 710" d="M494.157,454.263s2.293,24.238,9.87,22.4,3.094-21.123.17-22.573S494.157,454.263,494.157,454.263Z" transform="translate(-279.896 -242.357)" fill="#fff" stroke="#3397e1" stroke-width="1"/>
      <path id="Path_711" data-name="Path 711" d="M528.144,728.9s3.568,17.332-2.549,21.919,2.039,14.273,2.039,14.273l19.371-20.39s-8.156-12.744-7.646-20.39Z" transform="translate(-294.194 -375.127)" fill="#fff" stroke="#3397e1" stroke-width="1"/>
      <path id="Path_712" data-name="Path 712" d="M516.5,725.5l-2.039,13.763-.51,9.685,11.215-1.02,1.529-19.88Z" transform="translate(-251.962 -355.928)" fill="#fff" stroke="#3397e1" stroke-width="1"/>
      <path id="Path_713" data-name="Path 713" d="M502.532,459.778s-6.286,2.31-5.777,8.937,2.039,27.527,2.039,27.527-4.588,44.858,0,60.151,13.254,45.878,13.254,45.878,13.254,2.549,16.312-7.137c0,0-.51-33.134-6.117-40.271s-1.529-9.176-1.019-10.2,2.039-2.549,2.039-4.078.51-7.137.51-9.176-.51-1.529.51-4.588,2.039-4.078,2.039-4.588,8.666-27.527,8.666-27.527l11.215,62.7s-2.549,61.68-1.529,61.68,12.234,4.078,16.312,0c0,0,10.2-53.015,8.156-56.073s-2.549-3.568-2.039-6.627,1.529-4.588.51-6.117-2.549-6.627-1.02-8.156,2.039-8.666,2.039-8.666,8.666-49.956,3.059-57.092S502.532,459.778,502.532,459.778Z" transform="translate(-281.156 -245.442)" fill="#fff" stroke="#3397e1" stroke-width="1"/>
      <path id="Path_714" data-name="Path 714" d="M515.525,766.625s-6.117-7.646-8.156-4.078-5.1,9.176-5.1,9.176-22.939,19.88-10.2,20.39,20.9-8.666,20.9-8.666,2.039-10.2,8.156-10.2l1.02,2.549,11.215-7.137s-1.579-13.535-6.142-13.139Z" transform="translate(-276.987 -390.427)" fill="#1fbc99"/>
      <path id="Path_715" data-name="Path 715" d="M583.13,805.13s13.254-5.1,14.783,0a30.177,30.177,0,0,1,1.529,7.646s11.215,18.351,0,19.371-16.312-6.117-16.312-6.117,1.529-8.666,0-9.685S583.13,805.13,583.13,805.13Z" transform="translate(-323.181 -413.639)" fill="#1fbc99"/>
      <path id="Path_716" data-name="Path 716" d="M572.352,228.309l-3.568,19.88,24.978,6.117s-5.862-14.528.51-20.9C595.883,231.795,572.352,228.309,572.352,228.309Z" transform="translate(-316.481 -131.965)" fill="#fff" stroke="#2481c5" stroke-width="1"/>
      <path id="Path_717" data-name="Path 717" d="M538.754,250.694a3.253,3.253,0,0,0-2.54,2.353,13.574,13.574,0,0,1-2.039,4.078s-23.958,11.215-23.958,12.744,9.685,34.154,9.685,34.154.51,20.39-3.568,24.978-8.156,21.41-7.137,22.939-7.137,5.1-4.078,7.646S551,386.6,576.485,375.388a34.9,34.9,0,0,0,0-7.646c-.51-3.059,3.059-13.254,2.039-16.822s0-40.271,0-40.271l5.253-43.46a3.537,3.537,0,0,0-2.481-3.811c-5.875-1.786-19.5-9.1-21.378-7.528C557.486,257.881,542.314,256.5,538.754,250.694Z" transform="translate(-284.932 -142.94)" fill="#fff" stroke="#3397e1" stroke-width="1"/>
      <path id="Path_718" data-name="Path 718" d="M644.9,275.052l.033-.013a3.535,3.535,0,0,1,4.17,1.194c3.159,4.322,9.806,14.038,10.58,20.228,1.02,8.156,4.078,30.076,3.568,33.134s-1.019,3.568,0,5.1.51,1.02,0,2.549-6.627,43.839-6.627,43.839-4.078-9.176-11.724-6.117c0,0,1.019-8.156,0-10.7s-2.039-4.078-1.02-6.117,0-21.919-.51-23.958,0-12.744,0-12.744l-4.588-20.9Z" transform="translate(-350.799 -154.75)" fill="#fff" stroke="#3397e1" stroke-width="1"/>
      <path id="Path_720" data-name="Path 720" d="M642.032,305.92l4.51,50.919S637.013,314.133,642.032,305.92Z" transform="translate(-351.675 -170.014)" fill="#2481c5" opacity="0.1"/>
      <circle id="Ellipse_53" data-name="Ellipse 53" cx="17.841" cy="17.841" r="17.841" transform="translate(251.283 74.424)" fill="#fff" stroke="#2481c5" stroke-width="1"/>
      <path id="Path_719" data-name="Path 719" d="M578.649,201.478l.6-4.2c.141-.979.714-2.267,1.666-2,.81.226,2.576.92,2.871.711,1.107-.784,2.782.587,3.946-.11.488-.292.806-.917,1.372-.959a1.563,1.563,0,0,1,1.008.456,6.858,6.858,0,0,0,2.608,1.417,2.806,2.806,0,0,0,2.746-.748,1.458,1.458,0,0,1,.486-.465,1.089,1.089,0,0,1,.7.032l2.974.81a11.428,11.428,0,0,0-1.529-9.408,18.924,18.924,0,0,0-4.332-4.242q-2.763-2.1-5.7-3.953a18.52,18.52,0,0,0-6.927-3.014,7.4,7.4,0,0,0-6.893,2.287,4.439,4.439,0,0,1-1.6-2.157,1.634,1.634,0,0,0,.105,2.505l-2.515-1.606c-.707.742.674,2.089.072,2.918a1.536,1.536,0,0,1-.677.442,11.53,11.53,0,0,0-3.688,2.321,13.761,13.761,0,0,0-2.9,5.35c-1.5,4.3-2.588,9.231-.459,13.256.241.456,3.428,7.988,3.853,8.281,1.435.993.5-1.41,1.529,0,.806,1.106.655-3.126,1.854-2.2a2.988,2.988,0,0,0,3.252.146c.5-.345.337-2.258.069-4.015a2.07,2.07,0,0,1,2.519-2.329C577.149,201.356,578.623,201.656,578.649,201.478Z" transform="translate(-312.857 -106.175)" fill="#2481c5" stroke="#3397e1" stroke-width="1"/>
    </g>
    <g id="Group_18" data-name="Group 18" transform="translate(-707.547 4878.373)">
      <ellipse id="Ellipse_57" data-name="Ellipse 57" cx="16.634" cy="16.218" rx="16.634" ry="16.218" transform="translate(0 16.634)" fill="#3397e1"/>
      <ellipse id="Ellipse_58" data-name="Ellipse 58" cx="17.049" cy="16.634" rx="17.049" ry="16.634" transform="translate(36.594 2.495)" fill="#3397e1"/>
      <circle id="Ellipse_60" data-name="Ellipse 60" cx="16.634" cy="16.634" r="16.634" transform="translate(54.059 19.129)" fill="#3397e1"/>
      <ellipse id="Ellipse_59" data-name="Ellipse 59" cx="16.218" cy="16.634" rx="16.218" ry="16.634" transform="translate(13.307 0)" fill="#3397e1"/>
      <ellipse id="Ellipse_61" data-name="Ellipse 61" cx="17.049" cy="16.218" rx="17.049" ry="16.218" transform="translate(37.425 24.119)" fill="#3397e1"/>
      <circle id="Ellipse_62" data-name="Ellipse 62" cx="16.218" cy="16.218" r="16.218" transform="translate(13.307 24.119)" fill="#3397e1"/>
    </g>
    <text id="ERM" transform="translate(-664.924 4913.512)" fill="#fff" font-size="20" font-family="Poppins-Bold, Poppins" font-weight="700"><tspan x="-21.11" y="0">ERM</tspan></text>
    <g id="Group_19" data-name="Group 19" transform="translate(-415.629 4741.146)">
      <text id="CRM" transform="translate(51.445 33.643)" fill="#2481c5" font-size="21" font-family="Poppins-Bold, Poppins" font-weight="700"><tspan x="-24.486" y="0">CRM</tspan></text>
      <g id="Rectangle_51" data-name="Rectangle 51" transform="translate(0 0)" fill="none" stroke="#3397e1" stroke-width="2">
        <rect width="88.158" height="49.069" rx="3" stroke="none"/>
        <rect x="1" y="1" width="86.158" height="47.069" rx="2" fill="none"/>
      </g>
      <line id="Line_7" data-name="Line 7" x2="87.998" transform="translate(0.036 6.35)" fill="none" stroke="#2481c5" stroke-width="2"/>
      <line id="Line_8" data-name="Line 8" y2="42.796" transform="translate(21.348 6.35)" fill="none" stroke="#2481c5" stroke-width="5"/>
      <rect id="Rectangle_52" data-name="Rectangle 52" width="15.139" height="1.495" rx="0.748" transform="translate(2.486 10.98)" fill="#1fbc99"/>
      <rect id="Rectangle_53" data-name="Rectangle 53" width="15.139" height="1.327" rx="0.663" transform="translate(2.486 15.971)" fill="#1fbc99"/>
      <rect id="Rectangle_54" data-name="Rectangle 54" width="15.139" height="1.663" rx="0.832" transform="translate(2.486 20.793)" fill="#1fbc99"/>
      <rect id="Rectangle_55" data-name="Rectangle 55" width="14.139" height="1.663" rx="0.832" transform="translate(2.663 24.782)" fill="#1fbc99"/>
      <rect id="Rectangle_56" data-name="Rectangle 56" width="10.812" height="1.663" rx="0.832" transform="translate(2.663 28.772)" fill="#1fbc99"/>
      <rect id="Rectangle_57" data-name="Rectangle 57" width="8.317" height="1.495" rx="0.748" transform="translate(2.663 32.93)" fill="#1fbc99"/>
      <g id="Ellipse_63" data-name="Ellipse 63" transform="translate(5.822 2.495)" fill="none" stroke="#2481c5" stroke-width="1">
        <circle cx="0.832" cy="0.832" r="0.832" stroke="none"/>
        <circle cx="0.832" cy="0.832" r="0.332" fill="none"/>
      </g>
      <g id="Ellipse_64" data-name="Ellipse 64" transform="translate(8.317 2.495)" fill="none" stroke="#2481c5" stroke-width="1">
        <circle cx="0.832" cy="0.832" r="0.832" stroke="none"/>
        <circle cx="0.832" cy="0.832" r="0.332" fill="none"/>
      </g>
      <g id="Ellipse_65" data-name="Ellipse 65" transform="translate(10.812 2.495)" fill="none" stroke="#2481c5" stroke-width="1">
        <circle cx="0.832" cy="0.832" r="0.832" stroke="none"/>
        <circle cx="0.832" cy="0.832" r="0.332" fill="none"/>
      </g>
    </g>
    <g id="Group_20" data-name="Group 20" transform="translate(-307.511 4996.471)">
      <g id="Rectangle_58" data-name="Rectangle 58" transform="translate(0 0)" fill="#fff" stroke="#3397e1" stroke-width="2">
        <rect width="44.911" height="61.544" rx="5" stroke="none"/>
        <rect x="1" y="1" width="42.911" height="59.544" rx="4" fill="none"/>
      </g>
      <g id="Rectangle_59" data-name="Rectangle 59" transform="translate(5.822 17.465)" fill="#fff" stroke="#1fbc99" stroke-width="1">
        <rect width="34.099" height="1.663" rx="0.832" stroke="none"/>
        <rect x="0.5" y="0.5" width="33.099" height="0.663" rx="0.332" fill="none"/>
      </g>
      <g id="Rectangle_63" data-name="Rectangle 63" transform="translate(5.822 4.158)" fill="#fff" stroke="#1fbc99" stroke-width="1">
        <rect width="4.822" height="4.99" rx="2.411" stroke="none"/>
        <rect x="0.5" y="0.5" width="3.822" height="3.99" rx="1.911" fill="none"/>
      </g>
      <g id="Rectangle_60" data-name="Rectangle 60" transform="translate(5.822 28.277)" fill="#fff" stroke="#1fbc99" stroke-width="1">
        <rect width="34.099" height="1.663" rx="0.832" stroke="none"/>
        <rect x="0.5" y="0.5" width="33.099" height="0.663" rx="0.332" fill="none"/>
      </g>
      <g id="Rectangle_61" data-name="Rectangle 61" transform="translate(5.822 39.92)" fill="#fff" stroke="#1fbc99" stroke-width="1">
        <rect width="34.099" height="1.663" rx="0.832" stroke="none"/>
        <rect x="0.5" y="0.5" width="33.099" height="0.663" rx="0.332" fill="none"/>
      </g>
      <g id="Rectangle_62" data-name="Rectangle 62" transform="translate(5.822 50.732)" fill="#fff" stroke="#1fbc99" stroke-width="1">
        <rect width="34.099" height="1.663" rx="0.832" stroke="none"/>
        <rect x="0.5" y="0.5" width="33.099" height="0.663" rx="0.332" fill="none"/>
      </g>
    </g>
    <text id="DMS" transform="translate(-236.105 5034.273)" fill="#2481c5" font-size="21" font-family="Poppins-Bold, Poppins" font-weight="700"><tspan x="-23.73" y="0">DMS</tspan></text>
  </g>
</svg>
