<svg xmlns="http://www.w3.org/2000/svg" width="585.23" height="638.124" viewBox="0 0 585.23 638.124">
  <g id="vector1" transform="translate(-1026.5 -174.876)">
    <path id="Path_1048" data-name="Path 1048" d="M1550,395" transform="translate(-462.482 -49.337)" fill="none" stroke="#707070" stroke-width="1"/>
    <g id="Group_37" data-name="Group 37" transform="translate(1027 326.211)">
      <path id="Path_958" data-name="Path 958" d="M752.053,728.348c0,29.35-128.076,83.945-289.407,83.945S168.5,761.082,168.5,731.733s132.815-25.725,294.146-25.725S752.053,699,752.053,728.348Z" transform="translate(-168.5 -325.504)" fill="#3f3d56" opacity="0.076"/>
      <ellipse id="Ellipse_87" data-name="Ellipse 87" cx="292.115" cy="53.143" rx="292.115" ry="53.143" transform="translate(0 352.748)" fill="#fff" stroke="#2481c5" stroke-width="1"/>
      <path id="Path_960" data-name="Path 960" d="M594.859,440.238V582.365l23.773,38.744,1.81,2.947h93.8l1.895-183.818Z" transform="translate(-192.154 -215.084)" fill="#fff" stroke="#2481c5" stroke-width="1"/>
      <path id="Path_961" data-name="Path 961" d="M594.859,440.238V582.365l23.773,38.744,1.459-180.871Z" transform="translate(-192.154 -215.084)" fill="#2481c5" opacity="0.728"/>
      <path id="Path_962" data-name="Path 962" d="M202.477,434.639V576.766L178.7,615.51l-1.81,2.947H83.09L81.195,434.639Z" transform="translate(-26.228 -213.275)" fill="#fff" stroke="#2481c5" stroke-width="1"/>
      <path id="Path_963" data-name="Path 963" d="M248.308,434.639V576.766L224.535,615.51l-1.46-180.871Z" transform="translate(-72.059 -213.275)" fill="#2481c5" opacity="0.564"/>
      <path id="Path_964" data-name="Path 964" d="M572.762,416.877V425.4H63V413.087l47.375-24.635h420.7Z" transform="translate(-20.351 -198.356)" fill="#fff" stroke="#1fbc99" stroke-width="1"/>
      <path id="Path_965" data-name="Path 965" d="M572.762,428.632v8.528H63V424.842Z" transform="translate(-20.351 -210.111)" fill="#2481c5" opacity="0.1"/>
      <path id="Path_966" data-name="Path 966" d="M155.4,490.259h-22.74l-9.475-6.633h42.638Z" transform="translate(-39.791 -229.099)" fill="#2481c5" opacity="0.458"/>
      <path id="Path_967" data-name="Path 967" d="M155.4,530.848h-22.74l-9.475-6.633h42.638Z" transform="translate(-39.791 -242.211)" fill="#2481c5" opacity="0.458"/>
      <path id="Path_968" data-name="Path 968" d="M155.4,588.233h-22.74l-9.475-6.633h42.638Z" transform="translate(-39.791 -260.747)" fill="#2481c5" opacity="0.458"/>
      <path id="Path_969" data-name="Path 969" d="M155.4,645.617h-22.74l-9.475-6.632h42.638Z" transform="translate(-39.791 -279.284)" fill="#2481c5" opacity="0.458"/>
      <path id="Path_970" data-name="Path 970" d="M679.462,495.857H702.2l9.475-6.632H669.039Z" transform="translate(-216.116 -230.908)" fill="#2481c5" opacity="0.41"/>
      <path id="Path_971" data-name="Path 971" d="M679.462,536.446H702.2l9.475-6.632H669.039Z" transform="translate(-216.116 -244.019)" fill="#2481c5" opacity="0.41"/>
      <path id="Path_972" data-name="Path 972" d="M679.462,593.831H702.2l9.475-6.632H669.039Z" transform="translate(-216.116 -262.556)" fill="#2481c5" opacity="0.41"/>
      <path id="Path_973" data-name="Path 973" d="M679.462,651.216H702.2l9.475-6.633H669.039Z" transform="translate(-216.116 -281.092)" fill="#2481c5" opacity="0.41"/>
      <path id="Path_974" data-name="Path 974" d="M695.443,389.489l-3.161,20.179s-15.56,8.266-4.619,8.509,62.482,0,62.482,0,9.968,0-5.835-8.752l-3.161-21.151Z" transform="translate(-334.943 -223.105)" fill="#fff" stroke="#2481c5" stroke-width="1"/>
      <path id="Path_975" data-name="Path 975" d="M685.464,417.959a43.038,43.038,0,0,1,6.82-4.514l3.161-20.179,45.707.043,3.161,19.893a41.5,41.5,0,0,1,7.3,4.806c2.03-.463,4.248-2.184-7.3-8.582l-3.161-21.151-45.707,1.216-3.161,20.179S679.21,416.615,685.464,417.959Z" transform="translate(-334.945 -223.105)" fill="#2481c5" opacity="0.1"/>
      <rect id="Rectangle_120" data-name="Rectangle 120" width="205.923" height="143.441" rx="10.695" transform="translate(280.149 25.74)" fill="#fff" stroke="#2481c5" stroke-width="1"/>
      <rect id="Rectangle_121" data-name="Rectangle 121" width="192.065" height="107.459" transform="translate(287.078 33.398)" fill="#fff" stroke="#2481c5" stroke-width="1"/>
      <circle id="Ellipse_88" data-name="Ellipse 88" cx="1.216" cy="1.216" r="1.216" transform="translate(381.894 28.779)" fill="#f2f2f2"/>
      <path id="Path_976" data-name="Path 976" d="M788.247,364.931V377.5a7.239,7.239,0,0,1-7.241,7.24H589.564a7.239,7.239,0,0,1-7.24-7.241V364.931Z" transform="translate(-302.176 -215.564)" fill="#fff" stroke="#2481c5" stroke-width="1"/>
      <circle id="Ellipse_89" data-name="Ellipse 89" cx="4.619" cy="4.619" r="4.619" transform="translate(378.491 154.715)" fill="#1fbc99"/>
      <path id="Path_977" data-name="Path 977" d="M492.869,411.02v2.432h-130.8v-1.945l.18-.487,3.224-8.752H490.2Z" transform="translate(-116.958 -202.819)" fill="#fff" stroke="#1fbc99" stroke-width="1"/>
      <path id="Path_978" data-name="Path 978" d="M780.613,444.329c-.238,1.019-1.138,2.093-3.17,3.109-7.294,3.647-22.124-.972-22.124-.972s-11.427-1.945-11.427-7.05a9.134,9.134,0,0,1,1-.6c3.066-1.622,13.234-5.625,31.261.169a7.518,7.518,0,0,1,3.427,2.246,3.585,3.585,0,0,1,1.031,3.094Z" transform="translate(-354.366 -238.508)" fill="#fff" stroke="#3397e1" stroke-width="1"/>
      <path id="Path_979" data-name="Path 979" d="M781.091,444.329c-8.927,3.421-16.885,3.676-25.051-2a17.934,17.934,0,0,0-10.668-3.513c3.066-1.622,13.234-5.625,31.261.169a7.518,7.518,0,0,1,3.427,2.246,3.585,3.585,0,0,1,1.031,3.094Z" transform="translate(-354.844 -238.508)" fill="#fff" stroke="#1fbc99" stroke-width="1" opacity="0.1"/>
      <ellipse id="Ellipse_90" data-name="Ellipse 90" cx="3.161" cy="0.972" rx="3.161" ry="0.972" transform="translate(411.894 201.88)" fill="#1fbc99"/>
      <path id="Path_980" data-name="Path 980" d="M492.869,415.2v2.432h-130.8v-1.945l.18-.487Z" transform="translate(-116.958 -206.995)" fill="#1fbc99" opacity="0.1"/>
      <circle id="Ellipse_91" data-name="Ellipse 91" cx="25.892" cy="25.892" r="25.892" transform="translate(241.269 6.768)" fill="#fff" stroke="#3397e1" stroke-width="1"/>
      <path id="Path_982" data-name="Path 982" d="M534.957,210.035v40.882H577.2s-5.451-34.068-2.725-44.289Z" transform="translate(-286.875 -164.429)" fill="#fff" stroke="#3397e1" stroke-width="1"/>
      <path id="Path_983" data-name="Path 983" d="M593.406,277.032s-40.2-19.76-40.2-21.122-4.088-10.221-6.814-10.221-25.892-7.5-38.838,3.407l-1.363,8.858-49.74,32.706,13.627,49.74s8.858,9.539,6.132,16.353,2.044,41.564,2.044,41.564l106.975-3.407V348.576s3.407-10.9,5.451-14.309,0-13.627,0-13.627L607.034,300.2S604.99,281.12,593.406,277.032Z" transform="translate(-261.515 -176.235)" fill="#fff" stroke="#2481c5" stroke-width="1"/>
      <path id="Path_984" data-name="Path 984" d="M452.874,330.01l3.066-16.694s-17.716,76.995-15.671,85.853,17.034,22.485,19.078,23.167,21.122-58.6,21.122-58.6Z" transform="translate(-256.235 -198.891)" fill="#2481c5" opacity="0.1"/>
      <path id="Path_985" data-name="Path 985" d="M460.478,310.3l-11.583,2.044s-17.716,76.995-15.671,85.853,17.034,22.485,19.078,23.167,21.122-58.6,21.122-58.6Z" transform="translate(-253.959 -197.916)" fill="#fff" stroke="#2481c5" stroke-width="1"/>
      <path id="Path_986" data-name="Path 986" d="M655.351,338.65l5.792-11.243s8.176,76.995,2.725,84.49-27.013,10.3-27.013,10.3l-.241-55.951Z" transform="translate(-319.712 -203.443)" fill="#2481c5" opacity="0.1"/>
      <path id="Path_987" data-name="Path 987" d="M658.323,314.323l8.858,8.858s8.176,76.995,2.726,84.49-27.013,10.3-27.013,10.3l-.242-55.951Z" transform="translate(-321.663 -199.217)" fill="#fff" stroke="#2481c5" stroke-width="1"/>
      <path id="Path_988" data-name="Path 988" d="M459.188,486.5s-19.76-7.5-23.167,6.814,8.176,78.357,8.176,78.357,7.5,48.377,12.265,49.74,25.892,2.044,29.3-4.088-10.221-68.818-10.221-68.818l79.039-1.363s-4.77,54.51-7.5,59.279-2.725,21.122,0,21.122,32.706-1.363,34.75-5.451,13.627-96.073,13.627-96.073S605,494,594.1,496.042,459.188,486.5,459.188,486.5Z" transform="translate(-254.714 -254.201)" fill="#fff" stroke="#2481c5" stroke-width="1"/>
      <path id="Path_989" data-name="Path 989" d="M629.972,682.694s6.814-4.77,10.221,0,4.77,10.221-10.221,18.4-26.573,6.132-26.573,4.77V686.1Z" transform="translate(-308.983 -317.525)" fill="#2481c5"/>
      <path id="Path_990" data-name="Path 990" d="M462.594,679.674s-6.814-4.77-10.221,0-4.77,10.221,10.221,18.4,26.667,4.874,26.667,3.511c0,0,5.944-14.269-.7-20.06S462.594,679.674,462.594,679.674Z" transform="translate(-259.482 -316.549)" fill="#2481c5"/>
      <path id="Path_991" data-name="Path 991" d="M549.339,144.306a21.9,21.9,0,0,0-7.6,1.084,29.4,29.4,0,0,0-5.418,2.866l-11.431,7.108a5.354,5.354,0,0,0-3.227,4.989l-1.428,10.7c-.36,2.7-.693,5.587.516,8.027,1.009,2.037,2.932,3.431,4.514,5.064a18.587,18.587,0,0,1,4.9,9.519c.818,4.466.294,9.845,3.829,12.7,1.914,1.543,4.522,1.835,6.977,1.979a104.112,104.112,0,0,0,20.107-.774,8,8,0,0,0,3.038-.851,8.343,8.343,0,0,0,2.665-3.169c2.553-4.346,5.184-8.969,5.156-14.009-.014-2.493-.652-5.171.545-7.359a28.77,28.77,0,0,1,2.056-2.671c1.482-2.083,1.771-4.759,2.012-7.3.772-8.13-.035-14.316-6.027-20.043C564.925,146.81,556.967,144.355,549.339,144.306Z" transform="translate(-282.01 -144.293)" fill="#2481c5" stroke="#3397e1" stroke-width="1"/>
      <path id="Path_992" data-name="Path 992" d="M290.086,569.7l-22.74,115.6h11.37l21.793-113.7Z" transform="translate(-86.359 -256.904)" fill="#fff" stroke="#1fbc99" stroke-width="1"/>
      <path id="Path_993" data-name="Path 993" d="M408.708,581.891l14.213,132.652H432.4L423.868,578.1Z" transform="translate(-132.023 -259.617)" fill="#fff" stroke="#1fbc99" stroke-width="1"/>
      <path id="Path_994" data-name="Path 994" d="M466.093,577.2l19.9,88.119h9.475L476.516,575.3Z" transform="translate(-150.56 -258.713)" fill="#fff" stroke="#1fbc99" stroke-width="1"/>
      <path id="Path_995" data-name="Path 995" d="M352.767,578.1l-2.843,70.116h7.58l5.685-70.116Z" transform="translate(-113.034 -259.617)" fill="#fff" stroke="#1fbc99" stroke-width="1"/>
      <path id="Path_996" data-name="Path 996" d="M444.394,537.816s-15.16-101.384,27.478-104.226,103.279,0,103.279,0,35.058-2.843,24.635,104.226c0,0,9.475,31.268-75.8,28.425S444.394,537.816,444.394,537.816Z" transform="translate(-256.775 -237.334)" fill="#fff" stroke="#1fbc99" stroke-width="1"/>
      <path id="Path_997" data-name="Path 997" d="M997.1,630.14c0,17.679-10.51,23.852-23.475,23.852s-23.475-6.173-23.475-23.852,23.475-40.17,23.475-40.17S997.1,612.461,997.1,630.14Z" transform="translate(-420.991 -288.257)" fill="#3397e1"/>
      <path id="Path_998" data-name="Path 998" d="M810.8,599.849l10.005-18.3-9.968,15.983.108-6.653,6.9-13.244-6.867,11.483.194-11.966,7.384-10.543-7.354,8.662.122-21.941-.73,27.8-7.478-11.446,7.387,13.791-.7,13.364-.021-.355-8.655-12.093,8.629,13.346-.087,1.671-.016.025.008.137L807.881,617.4h2.371l.284-1.441,8.608-13.314-8.587,12Z" transform="translate(-258.783 -251.615)" fill="#1fbc99"/>
      <path id="Path_999" data-name="Path 999" d="M821.665,685.043H793.678l-7.233-40.88h40.88Z" transform="translate(-254.041 -280.957)" fill="#fff" stroke="#2481c5" stroke-width="1"/>
      <rect id="Rectangle_122" data-name="Rectangle 122" width="58.22" height="68.258" transform="translate(98.161 127.712)" fill="#3397e1" stroke="#1fbc99" stroke-width="1"/>
      <rect id="Rectangle_123" data-name="Rectangle 123" width="40.152" height="47.074" transform="translate(107.196 138.304)" fill="#fff"/>
    </g>
    <g id="Ellipse_5" data-name="Ellipse 5" transform="translate(1108 331)" fill="#fff" stroke="#3397e1" stroke-width="2">
      <circle cx="13" cy="13" r="13" stroke="none"/>
      <circle cx="13" cy="13" r="12" fill="none"/>
    </g>
    <g id="Ellipse_119" data-name="Ellipse 119" transform="matrix(-0.259, 0.966, -0.966, -0.259, 1333.356, 181.703)" fill="#fff" stroke="#3397e1" stroke-width="2">
      <circle cx="13.19" cy="13.19" r="13.19" stroke="none"/>
      <circle cx="13.19" cy="13.19" r="12.19" fill="none"/>
    </g>
    <g id="Ellipse_123" data-name="Ellipse 123" transform="translate(1576.31 270.689) rotate(-150)" fill="#fff" stroke="#3397e1" stroke-width="2">
      <circle cx="13.19" cy="13.19" r="13.19" stroke="none"/>
      <circle cx="13.19" cy="13.19" r="12.19" fill="none"/>
    </g>
    <g id="Ellipse_111" data-name="Ellipse 111" transform="translate(1193 357)" fill="#fff" stroke="#1fbc99" stroke-width="2">
      <circle cx="7.5" cy="7.5" r="7.5" stroke="none"/>
      <circle cx="7.5" cy="7.5" r="6.5" fill="none"/>
    </g>
    <g id="Ellipse_118" data-name="Ellipse 118" transform="matrix(-0.259, 0.966, -0.966, -0.259, 1285.786, 257.313)" fill="#fff" stroke="#1fbc99" stroke-width="2">
      <circle cx="7.371" cy="7.371" r="7.371" stroke="none"/>
      <circle cx="7.371" cy="7.371" r="6.371" fill="none"/>
    </g>
    <g id="Ellipse_122" data-name="Ellipse 122" transform="translate(1515.588 205.171) rotate(-150)" fill="#fff" stroke="#1fbc99" stroke-width="2">
      <circle cx="7.371" cy="7.371" r="7.371" stroke="none"/>
      <circle cx="7.371" cy="7.371" r="6.371" fill="none"/>
    </g>
    <g id="Ellipse_109" data-name="Ellipse 109" transform="translate(1106 248)" fill="#fff" stroke="#1fbc99" stroke-width="2">
      <circle cx="7.5" cy="7.5" r="7.5" stroke="none"/>
      <circle cx="7.5" cy="7.5" r="6.5" fill="none"/>
    </g>
    <g id="Ellipse_121" data-name="Ellipse 121" transform="matrix(-0.259, 0.966, -0.966, -0.259, 1413.947, 201.691)" fill="#fff" stroke="#1fbc99" stroke-width="2">
      <circle cx="7.371" cy="7.371" r="7.371" stroke="none"/>
      <circle cx="7.371" cy="7.371" r="6.371" fill="none"/>
    </g>
    <g id="Ellipse_125" data-name="Ellipse 125" transform="translate(1536.145 343.361) rotate(-150)" fill="#fff" stroke="#1fbc99" stroke-width="2">
      <circle cx="7.371" cy="7.371" r="7.371" stroke="none"/>
      <circle cx="7.371" cy="7.371" r="6.371" fill="none"/>
    </g>
    <g id="Ellipse_110" data-name="Ellipse 110" transform="translate(1181 263)" fill="#fff" stroke="#26b1e9" stroke-width="2">
      <ellipse cx="7.5" cy="7" rx="7.5" ry="7" stroke="none"/>
      <ellipse cx="7.5" cy="7" rx="6.5" ry="6" fill="none"/>
    </g>
    <g id="Ellipse_120" data-name="Ellipse 120" transform="matrix(-0.259, 0.966, -0.966, -0.259, 1380.229, 270.571)" fill="#fff" stroke="#26b1e9" stroke-width="2">
      <circle cx="7.371" cy="7.371" r="7.371" stroke="none"/>
      <circle cx="7.371" cy="7.371" r="6.371" fill="none"/>
    </g>
    <g id="Ellipse_124" data-name="Ellipse 124" transform="translate(1478.339 292.964) rotate(-150)" fill="#fff" stroke="#26b1e9" stroke-width="2">
      <circle cx="7.371" cy="7.371" r="7.371" stroke="none"/>
      <circle cx="7.371" cy="7.371" r="6.371" fill="none"/>
    </g>
    <line id="Line_14" data-name="Line 14" y1="28.707" transform="translate(1153.079 479.501)" fill="none" stroke="#1fbc99" stroke-width="1"/>
    <g id="Ellipse_102" data-name="Ellipse 102" transform="translate(1150 474)" fill="#fff" stroke="#17cdb3" stroke-width="1">
      <ellipse cx="3.5" cy="4" rx="3.5" ry="4" stroke="none"/>
      <ellipse cx="3.5" cy="4" rx="3" ry="3.5" fill="none"/>
    </g>
    <g id="Path_1061" data-name="Path 1061" transform="translate(1151.915 472.13)" fill="#fff">
      <path d="M 1.551738619804382 2.603478670120239 C 0.9718086123466492 2.603478670120239 0.4999986290931702 2.131668567657471 0.4999986290931702 1.551738619804382 C 0.4999986290931702 0.9718086123466492 0.9718086123466492 0.4999986290931702 1.551738619804382 0.4999986290931702 C 2.131668567657471 0.4999986290931702 2.603478670120239 0.9718086123466492 2.603478670120239 1.551738619804382 C 2.603478670120239 2.131668567657471 2.131668567657471 2.603478670120239 1.551738619804382 2.603478670120239 Z" stroke="none"/>
      <path d="M 1.551738619804382 0.9999985694885254 C 1.247508645057678 0.9999985694885254 0.9999985694885254 1.247508645057678 0.9999985694885254 1.551738619804382 C 0.9999985694885254 1.855968594551086 1.247508645057678 2.103478670120239 1.551738619804382 2.103478670120239 C 1.855968594551086 2.103478670120239 2.103478670120239 1.855968594551086 2.103478670120239 1.551738619804382 C 2.103478670120239 1.247508645057678 1.855968594551086 0.9999985694885254 1.551738619804382 0.9999985694885254 M 1.551738619804382 -1.430511474609375e-06 C 2.408738613128662 -1.430511474609375e-06 3.103478670120239 0.6947386264801025 3.103478670120239 1.551738619804382 C 3.103478670120239 2.408738613128662 2.408738613128662 3.103478670120239 1.551738619804382 3.103478670120239 C 0.6947386264801025 3.103478670120239 -1.430511474609375e-06 2.408738613128662 -1.430511474609375e-06 1.551738619804382 C -1.430511474609375e-06 0.6947386264801025 0.6947386264801025 -1.430511474609375e-06 1.551738619804382 -1.430511474609375e-06 Z" stroke="none" fill="#17cdb3"/>
    </g>
    <g id="Ellipse_104" data-name="Ellipse 104" transform="translate(1152 481)" fill="#fff" stroke="#17cdb3" stroke-width="1">
      <ellipse cx="1.5" cy="2" rx="1.5" ry="2" stroke="none"/>
      <ellipse cx="1.5" cy="2" rx="1" ry="1.5" fill="none"/>
    </g>
    <g id="Ellipse_105" data-name="Ellipse 105" transform="translate(1157 477)" fill="#fff" stroke="#17cdb3" stroke-width="1">
      <circle cx="1.5" cy="1.5" r="1.5" stroke="none"/>
      <circle cx="1.5" cy="1.5" r="1" fill="none"/>
    </g>
    <g id="Ellipse_106" data-name="Ellipse 106" transform="translate(1147 477)" fill="#fff" stroke="#17cdb3" stroke-width="1">
      <circle cx="1.5" cy="1.5" r="1.5" stroke="none"/>
      <circle cx="1.5" cy="1.5" r="1" fill="none"/>
    </g>
    <path id="Path_1050" data-name="Path 1050" d="M147.687,794.079l.267-.1c.059-.022,5.89-2.256,8.621-7.322s1.394-11.166,1.38-11.226l-.063-.278-.267.1c-.059.022-5.89,2.256-8.621,7.322s-1.394,11.166-1.38,11.226Zm8.45-7.658c-2.309,4.283-6.917,6.479-8.085,6.98-.222-1.251-.918-6.312,1.389-10.591s6.917-6.477,8.085-6.98C157.749,777.082,158.445,782.142,156.138,786.421Z" transform="translate(1004.735 -285.549)" fill="#1fbc99"/>
    <path id="Path_1051" data-name="Path 1051" d="M157.893,794.079l-.267-.1c-.059-.022-5.89-2.256-8.621-7.322s-1.394-11.166-1.38-11.226l.063-.278.267.1c.059.022,5.89,2.256,8.621,7.322s1.394,11.166,1.38,11.226Zm-8.45-7.658c2.309,4.283,6.917,6.479,8.085,6.98.222-1.251.918-6.312-1.389-10.591s-6.917-6.477-8.085-6.98C147.831,777.082,147.135,782.142,149.442,786.421Z" transform="translate(996.13 -285.549)" fill="#1fbc99"/>
    <path id="Path_1052" data-name="Path 1052" d="M126.053,808.053a17.989,17.989,0,0,0-7.631,8.82s6.81,1.078,12.319-1.875a17.988,17.988,0,0,0,7.631-8.82S131.562,805.1,126.053,808.053Z" transform="translate(1034.001 -307.386)" fill="#3397e1"/>
    <path id="Path_1054" data-name="Path 1054" d="M7.631,2.067A17.989,17.989,0,0,0,0,10.887s6.81,1.078,12.319-1.875A17.988,17.988,0,0,0,19.95.192S13.14-.886,7.631,2.067Z" transform="translate(1144.079 503.802) rotate(-60)" fill="#3397e1"/>
    <path id="Path_1053" data-name="Path 1053" d="M128.827,808.053c4.653,2.953,6.445,8.82,6.445,8.82s-5.752,1.078-10.4-1.875-6.445-8.82-6.445-8.82S124.174,805.1,128.827,808.053Z" transform="translate(1018.751 -307.386)" fill="#3397e1"/>
    <g id="Group_38" data-name="Group 38" transform="translate(1345.882 366.612)">
      <path id="Path_1049" data-name="Path 1049" d="M1057,2293.138h53.168v66.01h60.012v-70.1" transform="translate(-1050.311 -2279.76)" fill="none" stroke="#3397e1" stroke-width="1"/>
      <g id="Ellipse_100" data-name="Ellipse 100" transform="translate(0.118 7.388)" fill="#91cec0" stroke="#1fbc99" stroke-width="1">
        <circle cx="6.5" cy="6.5" r="6.5" stroke="none"/>
        <circle cx="6.5" cy="6.5" r="6" fill="none"/>
      </g>
      <g id="Ellipse_101" data-name="Ellipse 101" transform="translate(113.118 1.388)" fill="#efcbc6" stroke="#b0323c" stroke-width="1">
        <circle cx="6.5" cy="6.5" r="6.5" stroke="none"/>
        <circle cx="6.5" cy="6.5" r="6" fill="none"/>
      </g>
      <g id="Polygon_2" data-name="Polygon 2" transform="translate(33.188 10.548) rotate(90)" fill="#3397e1">
        <path d="M 4.523281097412109 2.587218761444092 L 1.136617064476013 2.587218761444092 L 2.829949140548706 0.7399463057518005 L 4.523281097412109 2.587218761444092 Z" stroke="none"/>
        <path d="M 2.829949140548706 1.479882836341858 L 2.273224830627441 2.087218761444092 L 3.386673450469971 2.087218761444092 L 2.829949140548706 1.479882836341858 M 2.829949140548706 -1.192092895507812e-06 L 5.659899234771729 3.087218761444092 L -9.5367431640625e-07 3.087218761444092 L 2.829949140548706 -1.192092895507812e-06 Z" stroke="none" fill="#3397e1"/>
      </g>
      <g id="Polygon_3" data-name="Polygon 3" transform="translate(63.118 66.388) rotate(180)" fill="#3397e1">
        <path d="M 5 3.5 L 1 3.5 L 3 0.8333333134651184 L 5 3.5 Z" stroke="none"/>
        <path d="M 3 1.666666746139526 L 2 3 L 4 3 L 3 1.666666746139526 M 3 0 L 6 4 L 0 4 L 3 0 Z" stroke="none" fill="#3397e1"/>
      </g>
      <g id="Polygon_4" data-name="Polygon 4" transform="translate(112.426 76.409) rotate(90)" fill="#3397e1">
        <path d="M 4.523281097412109 2.587218761444092 L 1.136617064476013 2.587218761444092 L 2.829949140548706 0.7399463057518005 L 4.523281097412109 2.587218761444092 Z" stroke="none"/>
        <path d="M 2.829949140548706 1.479882836341858 L 2.273224830627441 2.087218761444092 L 3.386673450469971 2.087218761444092 L 2.829949140548706 1.479882836341858 M 2.829949140548706 -1.192092895507812e-06 L 5.659899234771729 3.087218761444092 L -9.5367431640625e-07 3.087218761444092 L 2.829949140548706 -1.192092895507812e-06 Z" stroke="none" fill="#3397e1"/>
      </g>
      <g id="Polygon_5" data-name="Polygon 5" transform="translate(117.118 14.388)" fill="#3397e1">
        <path d="M 3.93248176574707 2.5 L 1.067518353462219 2.5 L 2.5 0.7810220122337341 L 3.93248176574707 2.5 Z" stroke="none"/>
        <path d="M 2.5 1.562044024467468 L 2.135036706924438 2 L 2.864963293075562 2 L 2.5 1.562044024467468 M 2.5 0 L 5 3 L 0 3 L 2.5 0 Z" stroke="none" fill="#3397e1"/>
      </g>
      <g id="Rectangle_141" data-name="Rectangle 141" transform="translate(33.118 0.388)" fill="#fff" stroke="#3397e1" stroke-width="1">
        <rect width="53" height="26" rx="6" stroke="none"/>
        <rect x="0.5" y="0.5" width="52" height="25" rx="5.5" fill="none"/>
      </g>
      <g id="Rectangle_142" data-name="Rectangle 142" transform="translate(33.118 67.388)" fill="#fff" stroke="#3397e1" stroke-width="1">
        <rect width="53" height="26" rx="6" stroke="none"/>
        <rect x="0.5" y="0.5" width="52" height="25" rx="5.5" fill="none"/>
      </g>
    </g>
  </g>
</svg>
