<svg xmlns="http://www.w3.org/2000/svg" width="537" height="436.094" viewBox="0 0 537 436.094">
  <g id="vector2" transform="translate(-967 -4225.906)">
    <rect id="Rectangle_146" data-name="Rectangle 146" width="49.956" height="406.274" rx="24.978" transform="matrix(0.926, -0.379, 0.379, 0.926, 1047.154, 4270.841)" fill="#2481c5" opacity="0.369"/>
    <rect id="Rectangle_147" data-name="Rectangle 147" width="49.956" height="389.091" rx="24.978" transform="matrix(0.926, -0.379, 0.379, 0.926, 967, 4282.138)" fill="#3397e1" opacity="0.369"/>
    <rect id="Rectangle_148" data-name="Rectangle 148" width="49.956" height="406.274" rx="24.978" transform="matrix(0.926, -0.379, 0.379, 0.926, 1136.871, 4259.117)" fill="#1fbc99" opacity="0.369"/>
    <g id="Group_16" data-name="Group 16" transform="translate(967 4203)">
      <path id="Path_674" data-name="Path 674" d="M801.639,123.138h-153V40.966h153ZM650.6,122.16H799.677V41.945H650.6Z" transform="translate(-387.639 -17.561)" fill="#3397e1"/>
      <path id="Path_675" data-name="Path 675" d="M746.7,519.072H648.639V413.495H746.7Zm-96.8-1.257h95.544V414.752H649.9Z" transform="translate(-353.021 -205.794)" fill="#2481c5"/>
      <path id="Path_676" data-name="Path 676" d="M489.636,519.072H391.578V413.495h98.059Zm-96.8-1.257h95.544V414.752H392.835Z" transform="translate(-239.282 -205.794)" fill="#1fbc99"/>
      <path id="Path_677" data-name="Path 677" d="M1003.76,519.072H905.7V413.495h98.059Zm-96.8-1.257H1002.5V414.752H906.958Z" transform="translate(-466.76 -205.794)" fill="#2481c5"/>
      <rect id="Rectangle_41" data-name="Rectangle 41" width="1.257" height="103.38" transform="translate(344.019 104.949)" fill="#3397e1"/>
      <path id="Path_678" data-name="Path 678" d="M647.869,326.916h-1.257v-57.64H361.223v57.64h-1.257v-58.9h287.9Z" transform="translate(-159.27 -118.587)" fill="#3397e1"/>
      <rect id="Rectangle_42" data-name="Rectangle 42" width="104.378" height="1.257" transform="translate(276 42.096)" fill="#1fbc99"/>
      <rect id="Rectangle_43" data-name="Rectangle 43" width="89.378" height="1.257" transform="translate(276 59.209)" fill="#1fbc99"/>
      <rect id="Rectangle_44" data-name="Rectangle 44" width="64.378" height="1.257" transform="translate(276 76.321)" fill="#1fbc99"/>
      <circle id="Ellipse_48" data-name="Ellipse 48" cx="38.063" cy="38.063" r="38.063" transform="translate(163.262 222.426)" fill="#1fbc99"/>
      <path id="Path_679" data-name="Path 679" d="M366.04,444.431H345.834V424.225h-7.518v20.206H318.109v7.518h20.206v20.206h7.518V451.95H366.04Z" transform="translate(-140.75 -187.701)" fill="#fff"/>
      <path id="Path_680" data-name="Path 680" d="M705.873,516.162a38.691,38.691,0,1,1,38.691-38.691,38.691,38.691,0,0,1-38.691,38.691Zm0-76.125a37.434,37.434,0,1,0,37.434,37.434,37.434,37.434,0,0,0-37.434-37.434Z" transform="translate(-361.225 -216.982)" fill="#1fbc99"/>
      <path id="Path_681" data-name="Path 681" d="M741.654,509.081H692.466v-8.776h49.188Zm-47.931-1.257H740.4v-6.261H693.723Z" transform="translate(-519.262 410.655) rotate(-45)" fill="#3397e1"/>
      <path id="Path_706" data-name="Path 706" d="M741.654,509.081H692.466v-8.776h49.188Zm-47.931-1.257H740.4v-6.261H693.723Z" transform="translate(195.482 -603.421) rotate(45)" fill="#3397e1"/>
      <path id="Path_682" data-name="Path 682" d="M962.935,516.162a38.691,38.691,0,1,1,38.691-38.691A38.691,38.691,0,0,1,962.935,516.162Zm0-76.125a37.434,37.434,0,1,0,37.434,37.434A37.434,37.434,0,0,0,962.935,440.037Z" transform="translate(-474.964 -216.982)" fill="#3397e1"/>
      <path id="Path_683" data-name="Path 683" d="M985.322,510.418V503.7H952.9v-8.776h32.424v-6.775l13.359,11.536Zm-31.167-7.97H986.58V507.8l10.137-8.141L986.58,490.9v5.285H954.156Z" transform="translate(-487.642 -238.828)" fill="#1fbc99"/>
      <path id="Path_684" data-name="Path 684" d="M401.268,445.911s13.381,27.877,4.46,28.992-11.151-25.089-11.151-25.089Z" transform="translate(-240.609 -220.137)" fill="#fff" stroke="#2481c5" stroke-width="1"/>
      <path id="Path_685" data-name="Path 685" d="M188.339,724.945l8.921,15.809-16.169,10.117L177.23,732.2Z" transform="translate(-78.417 -320.757)" fill="#fff" stroke="#3397e1" stroke-width="1"/>
      <path id="Path_686" data-name="Path 686" d="M304.238,792.816s4.9-7.975,6.67-6.64,9.079,7.119,9.079,7.119l9.518,9.116s32.157,3.4,11.724,14.667S309.5,819,309.5,819s-28.619,1.488-28.157-6.5,9.691-20.617,9.691-20.617S302.67,799.689,304.238,792.816Z" transform="translate(-190.507 -370.623)" fill="#2f2e41"/>
      <path id="Path_687" data-name="Path 687" d="M304.238,792.816s4.9-7.975,6.67-6.64,9.079,7.119,9.079,7.119l9.518,9.116s32.157,3.4,11.724,14.667S309.5,819,309.5,819s-28.619,1.488-28.157-6.5,9.691-20.617,9.691-20.617S302.67,799.689,304.238,792.816Z" transform="translate(-190.507 -370.623)" fill="#2481c5" opacity="0.853"/>
      <path id="Path_688" data-name="Path 688" d="M244.578,435.014l8.363,101.194s.279,60.493,9.2,72.2,9.2,17.563,9.2,17.563l18.4-9.478s-6.133-.558-3.345-4.46,11.151,0,3.345-5.575-9.478-5.758-7.527-8.176a13.476,13.476,0,0,0,2.509-5.205L279.7,530.632l9.478-108.721Z" transform="translate(-174.241 -209.518)" fill="#2f2e41"/>
      <path id="Path_689" data-name="Path 689" d="M244.578,435.014l8.363,101.194s.279,60.493,9.2,72.2,9.2,17.563,9.2,17.563l18.4-9.478s-6.133-.558-3.345-4.46,11.151,0,3.345-5.575-9.478-5.758-7.527-8.176a13.476,13.476,0,0,0,2.509-5.205L279.7,530.632l9.478-108.721Z" transform="translate(-174.241 -209.518)" fill="#fff" stroke="#2481c5" stroke-width="1"/>
      <path id="Path_690" data-name="Path 690" d="M267.578,787.911" transform="translate(-184.417 -371.458)" fill="none" stroke="#3f3d56" stroke-miterlimit="10" stroke-width="1"/>
      <path id="Path_691" data-name="Path 691" d="M143.262,723.175,135.457,743.8l-22.3-8.363,13.939-14.5Z" transform="translate(-50.066 -318.987)" fill="#fff" stroke="#3397e1" stroke-width="1"/>
      <path id="Path_692" data-name="Path 692" d="M240.989,781.417s8.333-5.208,9.375-3.125,5.208,10.938,5.208,10.938l4.687,13.021s28.646,18.229,4.167,19.271S233.7,808.5,233.7,808.5s-27.6-11.979-23.437-19.271,18.75-14.854,18.75-14.854S236.3,787.146,240.989,781.417Z" transform="translate(-158.867 -365.468)" fill="#2481c5"/>
      <path id="Path_693" data-name="Path 693" d="M315.385,443.7l4.46,93.11s-21.744,61.887-40.7,71.923c0,0,0,12.266-4.46,14.5a11.2,11.2,0,0,0-5.575,6.69l-24.532-6.133s6.133-6.133,3.9-8.921,7.248-8.921,7.248-8.921l24.532-59.657s3.9-1.673,5.018-7.248,3.345-5.575-2.23-6.69-5.575-6.691-5.575-6.691l-18.4-84.746Z" transform="translate(-174.241 -217.925)" fill="#fff" stroke="#2481c5" stroke-width="1"/>
      <path id="Path_694" data-name="Path 694" d="M296.871,146.411s-1.673,28.435-3.9,31.222,23.417,2.23,23.417,2.23-1.673-23.974,0-26.2S296.871,146.411,296.871,146.411Z" transform="translate(-195.591 -87.621)" fill="#fff" stroke="#3397e1" stroke-width="1"/>
      <path id="Path_695" data-name="Path 695" d="M262.562,186.628s21.187-2.23,28.992,4.46a57.369,57.369,0,0,0,7.985,5.712,16.377,16.377,0,0,1,7.946,13.56l4.141,126.8s-63-5.575-74.711,0c0,0-.558-12.823-1.673-14.5-.813-1.219-2.218-49.848-2.92-76.114a57.837,57.837,0,0,1,14.638-40.366c3.379-3.741,7.155-6.876,11.141-8.409C258.1,197.779,256.987,187.186,262.562,186.628Z" transform="translate(-168.809 -105.258)" fill="#fff" stroke="#3397e1" stroke-width="1"/>
      <path id="Path_696" data-name="Path 696" d="M332.534,206.794h0a16.469,16.469,0,0,1,12.117,13.635l7.954,56.615L363.756,322.2s5.575,5.018,3.345,7.806,2.788,14.5,2.788,14.5l-13.939,4.46s-1.673-11.708-4.46-12.266c-2.45-.49-29.875-73.753-36.486-91.5-.911-2.447-1.427-3.839-1.427-3.839S314.693,204.006,332.534,206.794Z" transform="translate(-204.77 -114.272)" fill="#fff" stroke="#3397e1" stroke-width="1"/>
      <path id="Path_697" data-name="Path 697" d="M314.078,268.411l33.731,91.253S315.193,297.961,314.078,268.411Z" transform="translate(-204.991 -141.601)" fill="#2481c5" opacity="0.1"/>
      <path id="Path_699" data-name="Path 699" d="M171.092,817.629l-.6-.224c-.131-.05-13.218-5.064-19.349-16.433s-3.129-25.059-3.1-25.2l.141-.623.6.224c.131.05,13.218,5.064,19.349,16.433s3.129,25.059,3.1,25.2Zm-18.966-17.186c5.183,9.613,15.525,14.54,18.145,15.665.5-2.808,2.061-14.165-3.118-23.769S151.63,777.8,149.008,776.674c-.5,2.81-2.06,14.166,3.118,23.768Z" transform="translate(-131.193 -365.812)" fill="#1fbc99"/>
      <path id="Path_703" data-name="Path 703" d="M148.188,817.629l.6-.224c.131-.05,13.218-5.064,19.349-16.433s3.129-25.059,3.1-25.2l-.141-.623-.6.224c-.131.05-13.218,5.064-19.349,16.433s-3.129,25.059-3.1,25.2Zm18.966-17.187c-5.183,9.613-15.525,14.54-18.145,15.665-.5-2.808-2.061-14.165,3.118-23.769s15.524-14.538,18.145-15.665c.5,2.81,2.06,14.166-3.118,23.769Z" transform="translate(335.037 -368.812)" fill="#1fbc99"/>
      <path id="Path_704" data-name="Path 704" d="M171.092,817.629l-.6-.224c-.131-.05-13.218-5.064-19.349-16.433s-3.129-25.059-3.1-25.2l.141-.623.6.224c.131.05,13.218,5.064,19.349,16.433s3.129,25.059,3.1,25.2Zm-18.966-17.187c5.183,9.613,15.525,14.54,18.145,15.665.5-2.808,2.061-14.165-3.118-23.769S151.63,777.8,149.008,776.674c-.5,2.81-2.06,14.166,3.118,23.769Z" transform="translate(315.724 -368.812)" fill="#1fbc99"/>
      <path id="Path_700" data-name="Path 700" d="M143.059,810.626c11.017,6.628,15.26,19.794,15.26,19.794s-13.62,2.419-24.637-4.209-15.26-19.794-15.26-19.794S132.042,804,143.059,810.626Z" transform="translate(-118.422 -379.455)" fill="#3397e1"/>
      <path id="Path_702" data-name="Path 702" d="M135.548,810.626c-12.364,6.628-17.126,19.794-17.126,19.794s15.284,2.419,27.648-4.209S163.2,806.417,163.2,806.417,147.912,804,135.548,810.626Z" transform="translate(364.804 -379.455)" fill="#3397e1"/>
      <path id="Path_705" data-name="Path 705" d="M141.773,810.626c10.442,6.628,14.464,19.794,14.464,19.794s-12.908,2.419-23.35-4.209-14.464-19.794-14.464-19.794S131.331,804,141.773,810.626Z" transform="translate(330.578 -379.455)" fill="#3397e1"/>
      <path id="Path_701" data-name="Path 701" d="M22.3,0A22.3,22.3,0,1,1,0,22.3,22.3,22.3,0,0,1,22.3,0Z" transform="translate(98.772 35.095)" fill="#fff" stroke="#3397e1" stroke-width="1"/>
      <path id="Path_698" data-name="Path 698" d="M303.119,123.508c1.886-.113,3.728.525,5.6.774a14.175,14.175,0,0,0,15.152-10.569,8.109,8.109,0,0,1,.775-2.525c1.031-1.684,3.38-2,5.316-1.618s3.772,1.293,5.743,1.4a8.794,8.794,0,0,0,7.59-4.3,14.567,14.567,0,0,0,1.863-8.8l-1.46,1.532a7.414,7.414,0,0,1-.661-4.029,4.675,4.675,0,0,0-4.429,1.133c-1.287.137-.316-2.387-1.272-3.259a2.212,2.212,0,0,0-1.556-.291c-2.738.026-4.953-2.068-7.11-3.753a30.213,30.213,0,0,0-12.761-5.821,16.788,16.788,0,0,0-9.311.451,19.889,19.889,0,0,0-6.288,4.46c-4.59,4.414-8.655,9.6-10.565,15.675a26.388,26.388,0,0,0-.126,15.3c.77,2.6,3.089,11.491,6.483,11.7C300.371,131.231,297.809,123.825,303.119,123.508Z" transform="translate(-193.697 -59.54)" fill="#3397e1" stroke="#2481c5" stroke-width="1"/>
    </g>
    <ellipse id="Ellipse_51" data-name="Ellipse 51" cx="5" cy="3.5" rx="5" ry="3.5" transform="translate(1086.15 4258.456) rotate(47)" fill="#fff"/>
    <ellipse id="Ellipse_113" data-name="Ellipse 113" cx="82" cy="1.5" rx="82" ry="1.5" transform="translate(972 4659)" opacity="0.222"/>
    <ellipse id="Ellipse_114" data-name="Ellipse 114" cx="24.5" cy="1" rx="24.5" ry="1" transform="translate(1428 4654)" opacity="0.145"/>
  </g>
</svg>
